<svg xmlns="http://www.w3.org/2000/svg"><defs> <style> .cls-1 { fill: #4f2d09; fill-rule: evenodd; } </style>  <style> .cls-1 { fill: #fff; fill-rule: evenodd; } </style>  <style> .cls-1 { fill: #fff; fill-rule: evenodd; } </style>  <style> .cls-1 { fill: #4f2d09; fill-rule: evenodd; } </style>  <style> .cls-1 { fill: #4f2d09; fill-rule: evenodd; } </style> </defs><symbol viewBox="0 0 42 42" id="svg-Email"><title>Email</title> <path d="M21.214,-0.015 C9.493,-0.015 -0.009,9.369 -0.009,20.946 C-0.009,32.522 9.493,41.906 21.214,41.906 C32.936,41.906 42.437,32.522 42.437,20.946 C42.437,9.369 32.936,-0.015 21.214,-0.015 ZM33.985,11.630 C33.985,11.630 21.318,21.225 21.318,21.225 C21.318,21.225 8.671,11.630 8.671,11.630 C8.671,11.630 33.985,11.630 33.985,11.630 ZM8.584,14.258 C8.584,14.258 16.035,19.911 16.035,19.911 C16.035,19.911 8.584,27.270 8.584,27.270 C8.584,27.270 8.584,14.258 8.584,14.258 C8.584,14.258 8.584,14.258 8.584,14.258 ZM8.615,30.261 C8.615,30.261 17.765,21.224 17.765,21.224 C17.765,21.224 21.317,23.918 21.317,23.918 C21.317,23.918 24.863,21.232 24.863,21.232 C24.863,21.232 34.005,30.261 34.005,30.261 C34.005,30.261 8.615,30.261 8.615,30.261 C8.615,30.261 8.615,30.261 8.615,30.261 ZM34.051,27.285 C34.051,27.285 26.594,19.921 26.594,19.921 C26.594,19.921 34.051,14.272 34.051,14.272 C34.051,14.272 34.051,27.285 34.051,27.285 Z"/> </symbol><symbol viewBox="0 0 35 35" id="svg-account"><title>account</title> <path d="M1.705,32.209 C1.705,32.222 1.706,32.235 1.706,32.248 C1.706,32.630 2.014,32.938 2.392,32.938 C2.392,32.938 32.251,32.938 32.251,32.938 C32.623,32.938 32.927,32.642 32.938,32.273 C32.938,32.264 32.938,32.256 32.938,32.248 C32.938,32.237 32.938,32.227 32.938,32.216 C32.930,31.736 32.749,26.034 29.302,24.319 C28.088,23.715 27.773,23.662 27.337,23.589 C26.837,23.504 26.215,23.400 24.560,22.714 C20.963,21.225 20.839,20.709 20.757,20.367 C20.741,20.304 20.733,20.239 20.733,20.174 C20.733,20.174 20.705,17.140 20.705,17.140 C20.703,16.949 20.766,16.762 20.882,16.610 C20.890,16.600 21.947,15.168 22.282,12.591 C22.314,12.343 22.453,12.122 22.662,11.984 C22.716,11.950 22.773,11.921 22.831,11.899 C23.099,11.369 23.335,9.907 23.261,9.280 C23.209,9.249 23.160,9.212 23.115,9.170 C22.912,8.981 22.813,8.704 22.850,8.429 C22.898,8.070 22.943,7.762 22.983,7.491 C23.093,6.745 23.153,6.334 23.114,5.936 C22.928,4.022 21.045,1.890 17.350,1.714 C14.247,1.892 11.734,4.084 11.554,5.936 C11.513,6.357 11.575,6.797 11.689,7.595 C11.724,7.841 11.763,8.117 11.806,8.432 C11.842,8.708 11.743,8.984 11.539,9.174 C11.494,9.216 11.445,9.252 11.392,9.284 C11.317,9.911 11.550,11.375 11.816,11.906 C11.875,11.928 11.932,11.957 11.985,11.992 C12.195,12.129 12.334,12.351 12.366,12.599 C12.700,15.176 13.757,16.615 13.768,16.630 C13.880,16.780 13.943,16.967 13.941,17.155 C13.941,17.155 13.912,20.205 13.912,20.205 C13.911,20.267 13.904,20.327 13.890,20.388 C13.814,20.722 13.687,21.281 10.082,22.774 C8.405,23.470 7.775,23.556 7.270,23.625 C6.843,23.683 6.534,23.725 5.341,24.319 C1.897,26.033 1.714,31.684 1.705,32.209 ZM32.251,34.654 C32.251,34.654 2.392,34.654 2.392,34.654 C1.086,34.654 0.020,33.606 -0.009,32.307 C-0.010,32.287 -0.011,32.268 -0.011,32.248 C-0.011,31.955 0.041,25.040 4.577,22.783 C5.925,22.111 6.407,22.011 7.039,21.925 C7.467,21.867 7.953,21.800 9.425,21.189 C11.183,20.462 11.916,20.027 12.200,19.830 C12.200,19.830 12.223,17.406 12.223,17.406 C11.870,16.853 11.091,15.443 10.734,13.291 C10.613,13.184 10.493,13.041 10.382,12.848 C9.872,11.966 9.344,9.288 9.935,8.264 C9.965,8.213 9.996,8.165 10.031,8.120 C10.017,8.021 10.004,7.927 9.991,7.837 C9.862,6.938 9.785,6.395 9.846,5.769 C10.131,2.836 13.546,0.193 17.302,-0.002 C17.329,-0.003 17.356,-0.003 17.383,-0.002 C22.129,0.205 24.565,3.134 24.821,5.769 C24.881,6.374 24.801,6.918 24.680,7.741 C24.663,7.857 24.645,7.980 24.626,8.111 C24.832,8.392 24.982,8.847 24.983,9.574 C24.983,9.607 24.930,12.359 23.915,13.275 C23.558,15.431 22.777,16.840 22.423,17.393 C22.423,17.393 22.445,19.787 22.445,19.787 C22.738,19.983 23.478,20.409 25.217,21.129 C26.691,21.741 27.185,21.823 27.621,21.897 C28.245,22.002 28.721,22.113 30.066,22.783 C34.602,25.040 34.654,31.955 34.654,32.248 C34.654,32.258 34.654,32.267 34.654,32.277 C34.640,33.590 33.568,34.654 32.251,34.654 Z"/> </symbol><symbol viewBox="5 39.6 90 21.6" id="svg-amex"><title>amex</title> <path d="M95,39.6H81.5c-0.2,0-0.5,0.1-0.6,0.3c-1,1-2,2-3,3c-0.9-1-1.8-2-2.7-3c-0.2-0.2-0.4-0.3-0.7-0.3H43.7c-0.3,0-0.5,0.1-0.6,0.4l-2.3,5.1c-0.8-1.7-1.6-3.4-2.3-5c-0.2-0.4-0.4-0.5-0.8-0.5H15.5c-0.4,0-0.6,0.1-0.8,0.5L5,61.1h11.6c0.1,0,0.3-0.2,0.4-0.3c0.4-0.9,0.8-1.9,1.2-2.8c0.1-0.1,0.3-0.3,0.5-0.3h2.6c0.3,0,0.5,0.1,0.6,0.4c0.3,0.8,0.7,1.7,1.1,2.5c0.2,0.4,0.4,0.6,0.9,0.6c16.7,0,33.3,0,50,0c0.7,0,1.1-0.2,1.5-0.7c0.8-0.9,1.7-1.9,2.6-2.8c1,1,1.9,2.1,2.8,3.1c0.2,0.2,0.4,0.3,0.7,0.3h13.1c-3.4-3.6-6.8-7.2-10.1-10.7C87.9,46.9,95,39.6,95,39.6z M52,58.1h-3.9V46.3c0,0-3.8,7.8-5.5,11.4c-0.1,0.3-0.3,0.4-0.6,0.4h-2.5c-0.3,0-0.5-0.1-0.6-0.4l-5.5-11.5v11.9H26c-0.4,0-0.6-0.1-0.7-0.5c-0.4-0.9-0.8-1.8-1.2-2.7c-0.1-0.2-0.2-0.3-0.5-0.3c-2.4,0-4.9,0-7.3,0c-0.3,0-0.4,0.1-0.5,0.3c-0.4,0.9-0.8,1.9-1.2,2.8c-0.1,0.1-0.3,0.4-0.4,0.4c-1.3,0-2.6,0-4,0l6.7-15c0.1-0.3,0.3-0.4,0.7-0.4c1.6,0,3.2,0,4.8,0c0.4,0,0.5,0.1,0.7,0.4L29.5,57V42.7h5.9c0.3,0,0.5,0.1,0.6,0.4l4.9,10l4.5-10c0.1-0.1,0.2-0.4,0.4-0.4H52V58.1z M87.4,58.1h-4.2c-0.6,0-0.9-0.2-1.3-0.6c0,0-4.1-4.5-4.2-4.6c0,0-3.7,3.8-4.7,4.9c-0.1,0.1-0.4,0.3-0.6,0.3h-17V42.7h17.2c0.4,0,0.7,0.1,0.9,0.4c1.3,1.5,2.7,3.1,4.1,4.6l4.7-4.8c0.1-0.1,0.3-0.2,0.5-0.2c1.6,0,3.1,0,4.8,0c-2.6,2.6-5,5.2-7.5,7.7C82.6,53,85,55.6,87.4,58.1z M17.4,51.4h5.3L20,45.3L17.4,51.4z M68.4,43.4c0,0.8,0,2.5,0,2.5h-9.2v2.7h9.2v3.2h-9.2v3.1h9.2v2.3c2.3-2.3,4.5-4.6,6.7-6.8C72.9,48.1,70.7,45.7,68.4,43.4C68.4,43.4,68.5,43.4,68.4,43.4z"/> </symbol><symbol viewBox="0 0 100 100" id="svg-arrow-down"><title>arrow-down</title> <g> <path d="M49.7,51.5L84,17.2l16,16.5L50.5,83.1L0,32.5l15.4-15.6L49.7,51.5z"/> </g> </symbol><symbol viewBox="-288 379 35 35" id="svg-arrow-left"><title>arrow-left</title> <path id="arrow-left-path-1" d="M-268,403.9c0.4-0.3,0.4-0.8,0.1-1.2l-5.5-6.3l5.5-6.3c0.3-0.4,0.3-0.9-0.1-1.2c-0.2-0.1-0.4-0.2-0.6-0.2
	c-0.2,0-0.5,0.1-0.6,0.3l-6.4,7.4l6.4,7.4C-268.9,404.1-268.4,404.2-268,403.9z M-270.7,380.7c8.6,0,15.6,7,15.6,15.6
	c0,8.6-7,15.6-15.6,15.6c-8.6,0-15.6-7-15.6-15.6C-286.3,387.7-279.3,380.7-270.7,380.7z M-270.7,413.7c9.6,0,17.3-7.8,17.3-17.3
	c0-9.6-7.8-17.3-17.3-17.3c-9.6,0-17.3,7.8-17.3,17.3C-288,405.9-280.2,413.7-270.7,413.7z"/> </symbol><symbol viewBox="0 0 35 35" id="svg-arrow-right"><title>arrow-right</title> <path d="M14.666,9.795 C14.308,10.103 14.268,10.643 14.576,11.001 C14.576,11.001 20.030,17.325 20.030,17.325 C20.030,17.325 14.576,23.651 14.576,23.651 C14.268,24.009 14.308,24.549 14.666,24.857 C14.827,24.996 15.026,25.065 15.224,25.065 C15.465,25.065 15.704,24.964 15.873,24.768 C15.873,24.768 22.289,17.325 22.289,17.325 C22.289,17.325 15.873,9.884 15.873,9.884 C15.565,9.526 15.024,9.486 14.666,9.795 ZM17.331,32.941 C8.717,32.941 1.709,25.936 1.709,17.326 C1.709,8.717 8.717,1.711 17.331,1.711 C25.945,1.711 32.952,8.717 32.952,17.326 C32.952,25.936 25.945,32.941 17.331,32.941 ZM17.331,0.000 C7.773,0.000 -0.003,7.773 -0.003,17.326 C-0.003,26.879 7.773,34.652 17.331,34.652 C26.888,34.652 34.664,26.879 34.664,17.326 C34.664,7.773 26.888,0.000 17.331,0.000 Z"/> </symbol><symbol viewBox="0 0 100 100" id="svg-arrow-up"><title>arrow-up</title> <g> <path d="M50.3,48.5L16,82.8L0,66.3l49.5-49.4L100,67.5L84.6,83.1L50.3,48.5z"/> </g> </symbol><symbol viewBox="0 0 100 100" id="svg-blogger"><title>blogger</title><path d="M37.5 40c0-1.8 1.4-3.2 3.2-3.2h9.7c1.8 0 3.2 1.4 3.2 3.2 0 1.8-1.4 3.2-3.2 3.2h-9.7c-1.8 0-3.2-1.4-3.2-3.2zM60 56.3H40.6c-1.8 0-3.2 1.4-3.2 3.2s1.4 3.2 3.2 3.2H60c1.8 0 3.2-1.4 3.2-3.2s-1.4-3.2-3.2-3.2zm39.7-6.5c0 27.5-22.3 49.8-49.8 49.8S0 77.4 0 49.8 22.3 0 49.8 0s49.9 22.3 49.9 49.8zM77 45.9c0-1.5-1.2-2.6-2.6-2.6H70c-1.5 0-2.6-1.2-2.6-2.6v-1.2c0-9-7.3-16.2-16.2-16.2H39.9c-9 0-16.2 7.3-16.2 16.2v20.7c0 9 7.3 16.2 16.2 16.2h20.8c9 0 16.2-7.3 16.2-16.2l.1-14.3z"/></symbol><symbol viewBox="0 0 34 30" id="svg-cart-summary-bg"><title>cart-summary-bg</title> <path d="M32.000,30.000 C32.000,30.000 6.000,30.000 6.000,30.000 C4.895,30.000 4.000,29.105 4.000,28.000 C4.000,28.000 4.000,18.200 4.000,18.200 C4.000,18.200 -0.000,15.000 -0.000,15.000 C-0.000,15.000 4.000,11.800 4.000,11.800 C4.000,11.800 4.000,2.000 4.000,2.000 C4.000,0.895 4.895,0.000 6.000,0.000 C6.000,0.000 32.000,0.000 32.000,0.000 C33.105,0.000 34.000,0.895 34.000,2.000 C34.000,2.000 34.000,28.000 34.000,28.000 C34.000,29.105 33.105,30.000 32.000,30.000 Z"/> </symbol><symbol viewBox="0 0 21.59 22.5" id="svg-cart"><title>cart</title>  <path id="cart-cart.svg" d="M2635.22,831.034v7.108a2.622,2.622,0,0,0,2.64,2.608h14.26a2.63,2.63,0,0,0,2.65-2.608v-7.108h-3.09v2.046h-3.6v-2.046h-6.17v2.046h-3.6v-2.046h-3.09Zm6.48-12.784a1.846,1.846,0,0,0-1.85,1.841v2.25h-3.68a1.975,1.975,0,0,0-1.98,1.969v3.221a1.976,1.976,0,0,0,1.98,1.969h2.14v-2.557h3.6V829.5h6.17v-2.557h3.6V829.5h2.13a1.969,1.969,0,0,0,1.98-1.969V824.31a1.969,1.969,0,0,0-1.98-1.969h-3.67v-2.25a1.846,1.846,0,0,0-1.85-1.841h-6.59Zm1.13,2.046h4.32a0.929,0.929,0,0,1,.93.92v1.125h-6.17v-1.125A0.92,0.92,0,0,1,2642.83,820.3Zm-3.49,7.67v4.091h1.54v-4.091h-1.54Zm9.77,0v4.091h1.54v-4.091h-1.54Z" transform="translate(-2634.19 -818.25)"/> </symbol><symbol viewBox="0 0 35 35" id="svg-chat"><title>chat</title> <path d="M26.170,15.499 C26.170,15.499 8.132,15.499 8.132,15.499 C7.658,15.499 7.275,15.881 7.275,16.352 C7.275,16.822 7.658,17.204 8.132,17.204 C8.132,17.204 26.170,17.204 26.170,17.204 C26.644,17.204 27.028,16.822 27.028,16.352 C27.028,15.881 26.644,15.499 26.170,15.499 ZM26.170,8.689 C26.170,8.689 8.132,8.689 8.132,8.689 C7.658,8.689 7.275,9.070 7.275,9.541 C7.275,10.012 7.658,10.393 8.132,10.393 C8.132,10.393 26.170,10.393 26.170,10.393 C26.644,10.393 27.028,10.012 27.028,9.541 C27.028,9.070 26.644,8.689 26.170,8.689 ZM32.944,20.694 C32.944,23.076 30.994,25.014 28.597,25.014 C28.597,25.014 24.600,25.014 24.600,25.014 C24.600,25.014 24.600,31.181 24.600,31.181 C24.600,31.181 16.577,25.014 16.577,25.014 C16.577,25.014 6.051,25.014 6.051,25.014 C3.654,25.014 1.704,23.076 1.704,20.694 C1.704,20.694 1.704,6.027 1.704,6.027 C1.704,3.644 3.654,1.705 6.051,1.705 C6.051,1.705 28.597,1.705 28.597,1.705 C30.994,1.705 32.944,3.644 32.944,6.027 C32.944,6.027 32.944,20.694 32.944,20.694 ZM28.597,0.001 C28.597,0.001 6.051,0.001 6.051,0.001 C2.709,0.001 -0.010,2.704 -0.010,6.027 C-0.010,6.027 -0.010,20.694 -0.010,20.694 C-0.010,24.016 2.709,26.719 6.051,26.719 C6.051,26.719 15.991,26.719 15.991,26.719 C15.991,26.719 26.314,34.654 26.314,34.654 C26.314,34.654 26.314,26.719 26.314,26.719 C26.314,26.719 28.597,26.719 28.597,26.719 C31.939,26.719 34.658,24.016 34.658,20.694 C34.658,20.694 34.658,6.027 34.658,6.027 C34.658,2.704 31.939,0.001 28.597,0.001 Z"/> </symbol><symbol viewBox="0 0 20 20" id="svg-close"><title>close</title> <path d="M19.718,18.283 C19.718,18.283 18.200,19.806 18.200,19.806 C18.200,19.806 9.853,11.428 9.853,11.428 C9.853,11.428 1.506,19.806 1.506,19.806 C1.506,19.806 -0.012,18.283 -0.012,18.283 C-0.012,18.283 8.335,9.905 8.335,9.905 C8.335,9.905 -0.012,1.528 -0.012,1.528 C-0.012,1.528 1.506,0.005 1.506,0.005 C1.506,0.005 9.853,8.382 9.853,8.382 C9.853,8.382 18.200,0.005 18.200,0.005 C18.200,0.005 19.718,1.528 19.718,1.528 C19.718,1.528 11.370,9.905 11.370,9.905 C11.370,9.905 19.718,18.283 19.718,18.283 Z"/> </symbol><symbol viewBox="4.4 43.8 90.1 15.4" id="svg-discover"><title>discover</title> <path d="M8.6,44.2H4.4v14.4h4.1c2.2,0,3.8-0.5,5.2-1.7c1.6-1.4,2.6-3.4,2.6-5.5
	C16.3,47.2,13.1,44.2,8.6,44.2z M11.8,55c-0.9,0.8-2,1.1-3.9,1.1H7.2v-9.5H8c1.8,0,2.9,0.3,3.9,1.2s1.6,2.2,1.6,3.6
	C13.4,52.8,12.8,54.1,11.8,55z M17.6,58.6h2.8V44.2h-2.8V58.6z M27.3,49.7c-1.7-0.6-2.2-1-2.2-1.8c0-0.9,0.9-1.6,2.1-1.6
	c0.8,0,1.5,0.3,2.3,1.2l1.5-1.9c-1.2-1.1-2.7-1.6-4.2-1.6c-2.6,0-4.5,1.8-4.5,4.1c0,2,0.9,3,3.6,3.9c1.1,0.4,1.7,0.6,1.9,0.8c0.6,0.4,0.8,0.9,0.8,1.5c0,1.2-0.9,2-2.2,2c-1.3,0-2.4-0.7-3.1-1.9l-1.8,1.7c1.3,1.9,2.9,2.7,5,2.7c2.9,0,5-1.9,5-4.7C31.5,51.9,30.5,50.9,27.3,49.7z M32.3,51.4c0,4.2,3.3,7.5,7.6,7.5c1.2,0,2.3-0.2,3.5-0.8v-3.3c-1.1,1.1-2.1,1.6-3.4,1.6c-2.8,0-4.8-2.1-4.8-5c0-2.8,2.1-4.9,4.7-4.9c1.3,0,2.4,0.5,3.5,1.6v-3.3c-1.2-0.6-2.3-0.9-3.5-0.9C35.8,43.9,32.3,47.2,32.3,51.4z M65.8,53.9L62,44.2h-3.1L65,59h1.5l6.2-14.8h-3.1L65.8,53.9z M74,58.6h8v-2.4h-5.2v-3.9h5v-2.4h-5v-3.2H82v-2.4h-8V58.6z M89.9,52.5c2.1-0.4,3.3-1.9,3.3-4.1c0-2.7-1.9-4.3-5.1-4.3h-4.2v14.4h2.8v-5.8h0.4l3.9,5.8h3.5L89.9,52.5z M87.5,50.8h-0.8v-4.4h0.9c1.8,0,2.7,0.7,2.7,2.1C90.3,50,89.3,50.8,87.5,50.8z M52.1,43.8c-4.2,0-7.7,3.4-7.7,7.7c0,4.2,3.4,7.7,7.7,7.7c4.2,0,7.7-3.4,7.7-7.7S56.3,43.8,52.1,43.8z M52.2,56.9c-3,0-5.4-2.4-5.4-5.4c0-3,2.4-5.4,5.4-5.4c3,0,5.4,2.4,5.4,5.4C57.6,54.5,55.2,56.9,52.2,56.9z"/> </symbol><symbol viewBox="0 0 27 27" id="svg-elist-submit"><title>elist-submit</title> <path d="M13.501,25.667 C13.501,25.667 13.500,25.667 13.500,25.667 C6.791,25.667 1.333,20.208 1.332,13.499 C1.332,6.790 6.790,1.332 13.500,1.332 C20.209,1.332 25.668,6.790 25.668,13.499 C25.668,20.209 20.210,25.667 13.501,25.667 ZM13.500,-0.002 C6.055,-0.002 -0.001,6.054 -0.001,13.499 C-0.001,20.944 6.056,27.000 13.500,27.000 C13.500,27.000 13.501,26.334 13.501,26.334 C13.501,26.334 13.501,27.000 13.501,27.000 C20.945,27.000 27.001,20.944 27.001,13.499 C27.001,6.054 20.944,-0.002 13.500,-0.002 ZM19.067,8.736 C19.067,8.736 10.954,16.849 10.954,16.849 C10.954,16.849 7.933,13.828 7.933,13.828 C7.673,13.567 7.251,13.567 6.990,13.827 C6.730,14.088 6.730,14.510 6.990,14.770 C6.990,14.770 10.954,18.734 10.954,18.734 C10.954,18.734 20.010,9.678 20.010,9.678 C20.270,9.418 20.270,8.996 20.010,8.736 C19.749,8.475 19.327,8.475 19.067,8.736 Z"/> </symbol><symbol viewBox="0 0 1024 1024" id="svg-facebook"><title>facebook</title><path d="M512 0C229.376 0 0 229.376 0 512s229.376 512 512 512 512-229.376 512-512S794.624 0 512 0zm151.552 301.056h-71.68c-25.6 0-30.72 10.24-30.72 36.864v63.488h102.4L653.312 512h-92.16v330.752H429.056V513.024h-68.608v-112.64h68.608V312.32c0-82.944 44.032-125.952 142.336-125.952h91.136l1.024 114.688z"/></symbol><symbol viewBox="0 0 16 1.76" id="svg-footer-minus"><title>footer-minus</title>  <path id="footer-minus-hide.svg" d="M2712,4482.11h16v1.78h-16v-1.78Z" transform="translate(-2712 -4482.12)"/> </symbol><symbol viewBox="0 0 16 16" id="svg-footer-plus"><title>footer-plus</title>  <path fill="#fff" id="footer-plus-expand.svg" d="M2712,4417.11h16v1.78h-16v-1.78Zm7.11,8.89v-16h1.78v16h-1.78Z" transform="translate(-2712 -4410)"/> </symbol><symbol viewBox="0 0 1024 1024" id="svg-gplus"><title>gplus</title><path d="M1024 512c0 282.8-229.2 512-512 512S0 794.8 0 512 229.2 0 512 0s512 229.2 512 512zm-675.7-56.4v112.9s109.5-.1 154.1-.1c-24.1 73.2-61.7 113-154.1 113-93.5 0-166.5-75.8-166.5-169.3 0-93.5 73-169.3 166.5-169.3 49.4 0 81.4 17.4 110.6 41.6 23.4-23.4 21.5-26.8 81.1-83.1-50.5-46.2-117.8-74.3-191.7-74.3-157.4 0-285 127.6-285 285s127.6 285 285 285c235.3 0 292.8-204.9 273.7-341.4H348.3zm443 76.2v101.6h70.5V531.8h98.8v-70.5h-98.8v-98.8h-70.5v98.8H689.8v70.5h101.5z"/></symbol><symbol viewBox="0 0 40 35" id="svg-heart"><title>heart</title> <path d="M32.630,19.057 C32.630,19.057 19.445,32.340 19.445,32.340 C19.445,32.340 6.257,19.052 6.257,19.052 C3.457,16.273 1.915,13.015 1.915,9.878 C1.915,5.036 5.024,1.908 9.834,1.908 C14.095,1.908 15.651,3.725 18.229,6.736 C18.229,6.736 18.714,7.300 18.714,7.300 C18.896,7.513 19.163,7.635 19.445,7.635 C19.726,7.635 19.993,7.513 20.176,7.300 C20.176,7.300 20.664,6.731 20.664,6.731 C23.241,3.723 24.796,1.908 29.055,1.908 C33.867,1.908 36.975,5.036 36.975,9.878 C36.975,13.015 35.434,16.273 32.630,19.057 ZM29.055,-0.003 C24.068,-0.003 21.962,2.273 19.445,5.206 C16.928,2.273 14.820,-0.003 9.834,-0.003 C3.947,-0.003 -0.009,3.968 -0.009,9.878 C-0.009,13.525 1.733,17.263 4.890,20.398 C4.890,20.398 18.759,34.371 18.759,34.371 C18.940,34.553 19.187,34.656 19.445,34.656 C19.702,34.656 19.949,34.553 20.130,34.371 C20.130,34.371 33.996,20.403 33.996,20.403 C37.158,17.263 38.900,13.526 38.900,9.878 C38.900,3.968 34.944,-0.003 29.055,-0.003 Z" id="heart-path-1"/> </symbol><symbol viewBox="0 0 33 35" id="svg-home"><title>home</title> <path d="M32.185,15.925 C32.185,15.925 16.816,0.254 16.816,0.254 C16.658,0.093 16.458,0.007 16.215,0.003 C15.989,0.004 15.773,0.096 15.616,0.258 C15.616,0.258 7.793,8.353 7.793,8.353 C7.793,8.353 7.793,2.815 7.793,2.815 C7.793,2.354 7.419,1.981 6.957,1.981 C6.495,1.981 6.121,2.354 6.121,2.815 C6.121,2.815 6.121,10.084 6.121,10.084 C6.121,10.084 0.212,16.198 0.212,16.198 C-0.108,16.529 -0.098,17.057 0.235,17.376 C0.397,17.532 0.606,17.610 0.815,17.610 C1.034,17.610 1.253,17.524 1.417,17.354 C1.417,17.354 16.223,2.034 16.223,2.034 C16.223,2.034 30.989,17.091 30.989,17.091 C31.312,17.420 31.842,17.426 32.172,17.104 C32.502,16.782 32.508,16.254 32.185,15.925 ZM27.148,32.986 C27.148,32.986 20.791,32.986 20.791,32.986 C20.791,32.986 20.791,22.321 20.791,22.321 C20.791,21.861 20.417,21.488 19.955,21.488 C19.955,21.488 12.532,21.488 12.532,21.488 C12.070,21.488 11.696,21.861 11.696,22.321 C11.696,22.321 11.696,32.986 11.696,32.986 C11.696,32.986 5.338,32.986 5.338,32.986 C5.338,32.986 5.338,17.190 5.338,17.190 C5.338,17.190 16.274,6.014 16.274,6.014 C16.274,6.014 27.148,17.189 27.148,17.189 C27.148,17.189 27.148,32.986 27.148,32.986 ZM16.876,4.237 C16.719,4.076 16.503,3.984 16.277,3.984 C16.277,3.984 16.276,3.984 16.276,3.984 C16.050,3.984 15.835,4.075 15.677,4.236 C15.677,4.236 3.903,16.269 3.903,16.269 C3.751,16.425 3.666,16.634 3.666,16.851 C3.666,16.851 3.666,33.820 3.666,33.820 C3.666,34.281 4.040,34.654 4.502,34.654 C4.502,34.654 12.532,34.654 12.532,34.654 C12.994,34.654 13.368,34.281 13.368,33.820 C13.368,33.820 13.368,23.155 13.368,23.155 C13.368,23.155 19.118,23.155 19.118,23.155 C19.118,23.155 19.118,33.820 19.118,33.820 C19.118,34.281 19.493,34.654 19.955,34.654 C19.955,34.654 27.985,34.654 27.985,34.654 C28.447,34.654 28.821,34.281 28.821,33.820 C28.821,33.820 28.821,16.851 28.821,16.851 C28.821,16.634 28.736,16.426 28.585,16.270 C28.585,16.270 16.876,4.237 16.876,4.237 Z"/> </symbol><symbol viewBox="0 0 1024 1024" id="svg-instagram-alt"><title>instagram-alt</title><path d="M404.48 512c0-61.44 49.152-110.592 110.592-110.592 60.416 0 109.568 49.152 109.568 110.592s-49.152 110.592-110.592 110.592c-60.416 0-109.568-49.152-109.568-110.592zm286.72 0c0 97.28-78.848 177.152-177.152 177.152-97.28 0-176.128-79.872-176.128-177.152 0-15.36 2.048-29.696 6.144-44.032h-50.176v242.688c0 12.288 10.24 22.528 22.528 22.528h397.312c12.288 0 22.528-10.24 22.528-22.528V467.968H686.08c3.072 14.336 5.12 28.672 5.12 44.032zm22.528-221.184h-66.56c-12.288 0-22.528 10.24-22.528 22.528v66.56c0 12.288 10.24 22.528 22.528 22.528h66.56c12.288 0 22.528-10.24 22.528-22.528v-66.56c-1.024-12.288-10.24-22.528-22.528-22.528zM1024 512c0 282.624-229.376 512-512 512S0 794.624 0 512 229.376 0 512 0s512 229.376 512 512zM801.792 290.816c0-36.864-29.696-66.56-66.56-66.56H293.888c-36.864 0-66.56 29.696-66.56 66.56v442.368c0 36.864 29.696 66.56 66.56 66.56h442.368c36.864 0 66.56-29.696 66.56-66.56l-1.024-442.368z"/></symbol><symbol viewBox="0 0 1024 1024" id="svg-instagram"><title>instagram</title><path d="M755.712 288.768v62.464c0 10.24-8.192 18.432-18.432 18.432h-61.44c-10.24 0-18.432-8.192-18.432-18.432v-62.464c0-10.24 8.192-18.432 18.432-18.432h61.44c10.24 0 18.432 8.192 18.432 18.432zM519.168 598.016c46.08 0 83.968-37.888 83.968-83.968s-37.888-83.968-83.968-83.968-83.968 37.888-83.968 83.968c0 47.104 37.888 83.968 83.968 83.968zM1024 512c0 282.624-229.376 512-512 512S0 794.624 0 512 229.376 0 512 0s512 229.376 512 512zm-217.088-82.944H638.976c17.408 24.576 27.648 53.248 27.648 84.992 0 80.896-65.536 147.456-147.456 147.456-80.896 0-147.456-65.536-147.456-147.456 0-31.744 10.24-61.44 27.648-84.992H231.424v258.048c0 62.464 51.2 113.664 113.664 113.664h348.16c62.464 0 113.664-51.2 113.664-113.664V429.056zM519.168 627.712c62.464 0 113.664-51.2 113.664-113.664 0-33.792-15.36-64.512-38.912-84.992-8.192-7.168-17.408-13.312-27.648-18.432-14.336-6.144-29.696-10.24-47.104-10.24-16.384 0-32.768 4.096-47.104 10.24-10.24 5.12-19.456 10.24-27.648 18.432-23.552 20.48-38.912 51.2-38.912 84.992 0 63.488 51.2 113.664 113.664 113.664zm287.744-290.816c0-62.464-51.2-113.664-113.664-113.664H381.952v143.36H358.4v-143.36h-16.384v143.36h-23.552V225.28c-6.144 1.024-11.264 3.072-16.384 5.12v135.168h-23.552v-122.88c-28.672 20.48-48.128 54.272-48.128 93.184v74.752h182.272c26.624-26.624 63.488-44.032 105.472-44.032 40.96 0 77.824 16.384 105.472 44.032h183.296v-73.728z"/></symbol><symbol viewBox="0 0 1024 1024" id="svg-linkedin"><title>linkedin</title><path d="M512 20.48C240.538 20.48 20.48 240.538 20.48 512S240.538 1003.52 512 1003.52 1003.52 783.462 1003.52 512 783.462 20.48 512 20.48zM391.68 715.725h-99.533V395.418h99.533v320.307zm-50.38-359.63c-31.438 0-51.764-22.27-51.764-49.817 0-28.11 20.94-49.715 53.043-49.715s51.762 21.606 52.377 49.715c0 27.546-20.275 49.818-53.658 49.818zm413.9 359.63h-99.533v-177.51c0-41.318-14.438-69.376-50.432-69.376-27.494 0-43.827 18.994-51.046 37.273-2.663 6.502-3.33 15.718-3.33 24.883v184.678h-99.583V497.562c0-39.987-1.28-73.42-2.61-102.195h86.476l4.557 44.493h1.997c13.107-20.89 45.21-51.712 98.918-51.712 65.485 0 114.586 43.878 114.586 138.19v189.388z"/></symbol><symbol viewBox="0 105.2 100 29.9" id="svg-logo"><title>logo</title> <g> <path d="M0,105.6h3.6v25.6H16v3.2H0V105.6z"/> <path d="M43.1,119.8c0,10-6,15.3-13.5,15.3s-12.8-6-12.8-14.6c0-9.3,5.7-15.3,13.5-15.3S43.1,111.3,43.1,119.8z M20.6,120.2
		c0,6,3.2,11.7,9.3,11.7s9.3-5.3,9.3-12.1c0-5.7-2.8-11.7-9.3-11.7C23.8,108.4,20.6,113.8,20.6,120.2z"/> <path d="M69.8,133.4c-1.8,0.7-5,1.4-8.9,1.4c-4.3,0-7.8-1.1-10.7-3.9c-2.5-2.5-3.9-6.4-3.9-10.7c0-8.5,6-14.9,15.7-14.9
		c3.2,0,6,0.7,7.1,1.4l-1.1,3.3c-1.4-0.7-3.6-1.1-6.4-1.1c-7.1,0-11.4,4.3-11.4,11.4c0,7.5,4.3,11.7,11,11.7c2.5,0,4.3-0.4,5-0.7
		v-8.9h-5.7v-2.8h9.6v13.9L69.8,133.4C69.8,133.4,69.8,133.4,69.8,133.4z"/> <path d="M100,119.8c0,10-6,15.3-13.5,15.3s-12.8-6-12.8-14.6c0-9.3,5.7-14.9,13.5-14.9C95,105.2,100,111.3,100,119.8z M77.9,120.2
		c0,6,3.2,11.7,9.3,11.7c5.7,0,8.9-5.3,8.9-12.1c0-5.7-2.8-11.7-9.3-11.7C80.8,108.4,77.9,113.8,77.9,120.2z"/> </g> </symbol><symbol viewBox="0 0 45 32" id="svg-mail"><title>mail</title> <path d="M3.291,1.819 C3.291,1.819 41.213,1.819 41.213,1.819 C41.213,1.819 22.491,14.899 22.491,14.899 C22.491,14.899 3.291,1.819 3.291,1.819 ZM29.204,16.990 C28.832,16.657 28.263,16.692 27.933,17.068 C27.604,17.445 27.638,18.019 28.011,18.352 C28.011,18.352 41.250,30.182 41.250,30.182 C41.250,30.182 3.356,30.182 3.356,30.182 C3.356,30.182 16.595,18.352 16.595,18.352 C16.968,18.019 17.003,17.445 16.673,17.068 C16.344,16.692 15.775,16.657 15.402,16.990 C15.402,16.990 1.799,29.144 1.799,29.144 C1.799,29.144 1.799,2.997 1.799,2.997 C1.799,2.997 21.994,16.754 21.994,16.754 C22.146,16.857 22.322,16.910 22.498,16.910 C22.677,16.910 22.856,16.855 23.010,16.748 C23.010,16.748 43.196,2.645 43.196,2.645 C43.196,2.645 43.196,29.492 43.196,29.492 C43.196,29.492 29.204,16.990 29.204,16.990 ZM42.883,-0.001 C42.883,-0.001 2.112,-0.001 2.112,-0.001 C0.946,-0.001 -0.002,0.958 -0.002,2.136 C-0.002,2.136 -0.002,29.866 -0.002,29.866 C-0.002,30.409 0.206,30.900 0.538,31.277 C0.564,31.321 0.593,31.364 0.628,31.404 C0.707,31.495 0.802,31.563 0.903,31.613 C1.246,31.856 1.662,32.001 2.112,32.001 C2.112,32.001 42.883,32.001 42.883,32.001 C44.049,32.001 44.997,31.043 44.997,29.866 C44.997,29.866 44.997,2.136 44.997,2.136 C44.997,0.958 44.049,-0.001 42.883,-0.001 Z"/> </symbol><symbol viewBox="0 0 19 19" id="svg-map-pin"><title>map-pin</title> <path d="M13.678,13.340 C13.421,13.304 13.183,13.483 13.147,13.740 C13.111,13.997 13.290,14.235 13.546,14.272 C16.835,14.738 18.060,15.598 18.060,16.030 C18.060,16.738 15.120,18.059 9.499,18.059 C3.879,18.059 0.939,16.738 0.939,16.030 C0.939,15.601 2.152,14.746 5.409,14.278 C5.666,14.241 5.844,14.002 5.807,13.745 C5.770,13.488 5.535,13.311 5.276,13.347 C3.306,13.630 0.000,14.356 0.000,16.030 C0.000,17.980 4.779,18.999 9.499,18.999 C14.220,18.999 18.999,17.980 18.999,16.030 C18.999,14.283 15.277,13.567 13.678,13.340 ZM9.499,0.942 C12.115,0.942 14.243,3.074 14.243,5.695 C14.243,9.311 10.610,13.376 9.496,14.538 C8.378,13.396 4.757,9.408 4.757,5.695 C4.757,3.074 6.884,0.942 9.499,0.942 ZM9.179,15.547 C9.179,15.547 9.503,15.851 9.503,15.851 C9.503,15.851 9.824,15.543 9.824,15.543 C10.042,15.333 15.181,10.348 15.181,5.695 C15.181,2.555 12.632,0.001 9.499,0.001 C6.367,0.001 3.818,2.555 3.818,5.695 C3.818,10.473 8.960,15.342 9.179,15.547 ZM7.726,5.516 C7.726,4.536 8.522,3.739 9.499,3.739 C10.477,3.739 11.273,4.536 11.273,5.516 C11.273,6.496 10.477,7.293 9.499,7.293 C8.522,7.293 7.726,6.496 7.726,5.516 ZM12.211,5.516 C12.211,4.018 10.995,2.799 9.499,2.799 C8.004,2.799 6.788,4.018 6.788,5.516 C6.788,7.014 8.004,8.234 9.499,8.234 C10.995,8.234 12.211,7.014 12.211,5.516 Z"/> </symbol><symbol viewBox="4.2 43 90.6 15" id="svg-mc"><title>mc</title> <path d="M39.9,48.7h1.6l0.4-2.8h-1.5l0.3-1.8h-3.1c-0.1,0.1-1.8,10-1.8,11.2c0,1.8,1,2.6,2.4,2.6
	c1.1,0,2-0.3,2.3-0.4l0.4-2.6c-0.2,0-0.5,0.1-0.8,0.1c-1.1,0-1.2-0.6-1.1-1L39.9,48.7z M50.9,52.7c0,0,0.4-2,0.4-2.8
	c0-2-1-4.4-4.4-4.4c-3.1,0-5.4,3.3-5.4,7c0,4.3,2.9,5.3,5.3,5.3c2.2,0,3.2-0.5,3.2-0.5l0.5-2.9c0,0-1.7,0.7-3.3,0.7
	c-3.3,0-2.7-2.4-2.7-2.4S50.9,52.7,50.9,52.7z M46.9,48.3c1.7,0,1.4,1.9,1.4,2.1H45C45,50.1,45.3,48.3,46.9,48.3z M61.3,51.5c0-3.6,1.9-5.5,4-5.5c1.6,0,2.8,0.9,2.8,0.9l0.5-3.2c0,0-1.9-0.7-3.4-0.7c-3.5,0-7,3-7,8.7c0,3.8,1.9,6.3,5.5,6.3c1,0,2.7-0.4,2.7-0.4l0.5-3.3c0,0-1.5,0.7-2.5,0.7C62.2,54.9,61.3,53.2,61.3,51.5z M23.8,45.6c-2.1,0-3.7,0.7-3.7,0.7l-0.4,2.6c0,0,1.3-0.5,3.3-0.5c1.1,0,2,0.1,2,1c0,0.6-0.1,0.8-0.1,0.8s-0.9-0.1-1.3-0.1c-2.6,0-5.4,1.1-5.4,4.5c0,2.7,1.8,3.3,3,3.3c2.2,0,3.1-1.4,3.1-1.4l-0.1,1.2h2.7l1.2-8.3C28,45.7,24.8,45.6,23.8,45.6z M22.2,55.3c-1,0-1.2-0.7-1.2-1.1c0-0.8,0.5-1.8,2.7-1.8c0.5,0,0.6,0.1,0.7,0.1C24.5,52.9,24.1,55.3,22.2,55.3z M33.5,48.4c0.4,0,2.1,0.1,2.1,0.1l0.4-2.7c0,0-1.1-0.2-2.8-0.2c-2.3,0-4.6,0.9-4.6,4c0,3.5,3.8,3.1,3.8,4.6c0,1-1.1,1.1-1.9,1.1c-1.4,0-2.7-0.5-2.7-0.5l-0.4,2.6c0.1,0,0.9,0.4,3.4,0.4c0.7,0,4.6,0.2,4.6-3.9c0-3.8-3.7-3-3.7-4.5C31.8,48.6,32.4,48.4,33.5,48.4z M91.7,43.2l-0.7,4c0,0-1.2-1.6-3-1.6c-2.8,0-5.1,3.3-5.1,7.2c0,2.5,1.2,4.9,3.8,4.9c1.8,0,2.9-1.3,2.9-1.3l-0.1,1.1h3l2.3-14.4L91.7,43.2z M87.8,54.8c-1.1,0-1.6-0.9-1.6-2.4c0-2.3,1.1-3.9,2.4-3.9c1.1,0,1.7,0.7,1.7,2.5C90.3,52.7,89.5,54.8,87.8,54.8z M14.3,43.2l-3,8.8l-0.2-8.8H6.7L4.2,57.6h3L9,46.7l0.3,10.9h2.1l3.9-10.9l-1.7,10.9h3.1l2.4-14.4C19.1,43.2,14.3,43.2,14.3,43.2z M58.1,45.7c-1.4,0-2.4,1.9-2.4,1.9l0.3-1.7h-2.9l-1.9,11.7h3.1c0.9-5,1.1-9.1,3.2-8.3c0.4-1.9,0.7-2.7,1.1-3.5C58.7,45.8,58.5,45.7,58.1,45.7z M73.4,45.6c-2.1,0-3.7,0.7-3.7,0.7l-0.4,2.6c0,0,1.3-0.5,3.3-0.5c1.1,0,2,0.1,2,1c0,0.6-0.1,0.8-0.1,0.8s-0.9-0.1-1.3-0.1c-2.6,0-5.4,1.1-5.4,4.5c0,2.7,1.8,3.3,3,3.3c2.2,0,3.1-1.4,3.1-1.4l-0.1,1.2h2.7l1.2-8.3C77.6,45.7,74.5,45.6,73.4,45.6z M71.9,55.3c-1,0-1.2-0.7-1.2-1.1c0-0.8,0.5-1.8,2.7-1.8c0.5,0,0.6,0.1,0.7,0.1C74.1,52.9,73.7,55.3,71.9,55.3z M84.4,45.8c0,0-0.2,0-0.6,0c-1.4,0-2.4,1.9-2.4,1.9l0.3-1.7h-2.9l-1.9,11.7H80c0.9-5,1.1-9.1,3.2-8.3C83.6,47.3,84,46.6,84.4,45.8z"/> </symbol><symbol viewBox="0 0 24 20" id="svg-menu"><title>menu</title>  <path id="menu-menu.svg" class="cls-1" d="M2479,820h24v3.406h-24V820Zm0,8.281h24v3.438h-24v-3.438Zm0,8.313h24V840h-24v-3.406Z" transform="translate(-2479 -820)"/> </symbol><symbol viewBox="0 0 22 28" id="svg-minus"><title>minus</title> <path fill="#fff" d="M22 11.5v3q0 0.625-0.438 1.062t-1.062 0.438h-19q-0.625 0-1.062-0.438t-0.438-1.062v-3q0-0.625 0.438-1.062t1.062-0.438h19q0.625 0 1.062 0.438t0.438 1.062z"/> </symbol><symbol viewBox="5 39.6 90 23.8" id="svg-paypal"><title>paypal</title> <path d="M54.2,43.7c-0.6,0-3.2,0-3.2,0c-0.6,0-1.3,0.4-1.7,1c0,0-3.9,6.3-4.3,6.9c-0.2,0.3-0.4,0.1-0.5,0
	c0-0.2-1.2-6.8-1.2-6.8c-0.1-0.5-0.7-1-1.5-1h-2.4c-0.6,0-0.9,0.4-0.8,1c0,0,1.8,9.9,2.2,12.2c0.2,1.3,0,1.5,0,1.5l-2.4,3.9c-0.3,0.5-0.2,1,0.4,1h2.8c0.6,0,1.3-0.4,1.7-1l10.8-17.2C54.1,45.2,55.1,43.7,54.2,43.7z M22.8,42.1c-0.3-0.6-0.8-1.1-1.5-1.5s-1.4-0.7-2.3-0.8c-0.9-0.2-2-0.2-3.2-0.2h-5.6c-0.6,0-1.2,0.4-1.3,1L5,56.1c-0.1,0.5,0.2,1,0.8,1h2.7c0.6,0,1.2-0.4,1.3-1l0.9-3.8c0.1-0.5,0.7-1,1.3-1h0.8c3.3,0,5.9-0.6,7.7-1.9c1.8-1.3,2.8-3,2.8-5C23.3,43.5,23.1,42.7,22.8,42.1z M16.9,47.2C16.1,47.8,15,48,13.5,48h-0.7c-0.6,0-1-0.4-0.8-1l0.8-3.3c0.1-0.5,0.7-1,1.3-1H15c1,0,1.8,0.2,2.3,0.5s0.8,0.8,0.8,1.5C18.2,45.9,17.8,46.7,16.9,47.2z M35.8,44.3c-1-0.5-2.6-0.8-4.8-0.8c-1.1,0-2.2,0.1-3.3,0.2c-0.8,0.1-0.9,0.1-1.4,0.2c-1,0.2-1.2,1.2-1.2,1.2l-0.3,1.3c-0.2,0.8,0.3,0.8,0.5,0.7c0.4-0.1,0.7-0.3,1.6-0.5s1.8-0.3,2.5-0.3c1.1,0,1.9,0.1,2.4,0.3c0.5,0.2,0.8,0.6,0.8,1.2c0,0.1,0,0.3,0,0.4c0,0.1-0.1,0.2-0.4,0.2c-1.5,0.1-2.6,0.2-4,0.4c-1.3,0.2-2.5,0.5-3.4,0.9c-1,0.4-1.8,1-2.3,1.7s-0.8,1.6-0.8,2.7c0,1,0.4,1.8,1.1,2.4c0.7,0.6,1.7,0.9,2.8,0.9c0.7,0,1.3-0.1,1.7-0.1c0.4-0.1,0.8-0.2,1.3-0.4c0.3-0.1,0.7-0.3,1.1-0.6c0.4-0.2,0.7-0.4,1-0.6l0,0l-0.1,0.4l0,0l0,0c-0.1,0.5,0.2,0.9,0.7,1l0,0l0,0l0,0c0.3,0,1.5,0,2.1,0H34l0,0c0.5-0.1,1-0.5,1.2-1l2-8c0-0.2,0.1-0.4,0.1-0.7s0.1-0.5,0-0.6C37.3,45.7,36.8,44.9,35.8,44.3z M32,51.2c0,0.2-0.4,1.5-0.5,2.2c0,0.2-0.3,0.5-0.4,0.5c-0.3,0.2-0.7,0.4-1.1,0.5c-0.5,0.2-1,0.3-1.4,0.3c-0.7,0-1.2-0.1-1.5-0.3s-0.5-0.5-0.5-1s0.1-0.9,0.4-1.2s0.7-0.6,1.2-0.7c0.5-0.2,1.1-0.3,1.8-0.4c0.6-0.1,1.8-0.2,2-0.2C32,50.9,32.1,50.8,32,51.2z M84.8,44.4c-1-0.5-2.6-0.8-4.8-0.8c-1.1,0-2.2,0.1-3.3,0.2c-0.8,0.1-0.9,0.1-1.4,0.2c-1,0.2-1.2,1.2-1.2,1.2l-0.3,1.3c-0.2,0.8,0.3,0.8,0.5,0.7c0.4-0.1,0.7-0.3,1.6-0.4c0.9-0.2,1.8-0.3,2.5-0.3c1.1,0,1.9,0.1,2.4,0.3s0.8,0.6,0.8,1.2c0,0.1,0,0.3,0,0.4c0,0.1-0.1,0.2-0.4,0.2c-1.5,0.1-2.7,0.2-4,0.4s-2.5,0.5-3.4,0.9c-1,0.4-1.8,1-2.3,1.7s-0.8,1.6-0.8,2.7c0,1,0.4,1.8,1.1,2.4c0.7,0.6,1.7,0.9,2.8,0.9c0.7,0,1.3-0.1,1.7-0.1c0.4-0.1,0.8-0.2,1.3-0.4c0.3-0.1,0.7-0.3,1.1-0.6c0.4-0.2,0.7-0.4,1-0.6l0,0l-0.1,0.4l0,0l0,0c-0.1,0.5,0.2,0.9,0.7,1l0,0l0,0l0,0c0.3,0,1.5,0,2.1,0h0.4l0,0c0.5-0.1,1-0.5,1.2-1l2-8c0-0.2,0.1-0.4,0.1-0.7s0.1-0.5,0-0.6C86.4,45.7,85.9,44.9,84.8,44.4z M81,51.3c0,0.2-0.4,1.5-0.5,2.2c0,0.2-0.3,0.5-0.4,0.5c-0.3,0.2-0.7,0.4-1.1,0.5c-0.5,0.2-1,0.3-1.4,0.3c-0.7,0-1.2-0.1-1.5-0.3s-0.5-0.5-0.5-1s0.1-0.9,0.4-1.2s0.7-0.6,1.2-0.7c0.5-0.2,1.1-0.3,1.8-0.4c0.6-0.1,1.8-0.2,2-0.2C81,50.9,81.1,50.9,81,51.3z M71.8,42.2c-0.3-0.6-0.8-1.1-1.5-1.5S68.9,40,68,39.9s-2-0.2-3.2-0.2h-5.7c-0.6,0-1.2,0.4-1.3,1L54,56.3c-0.1,0.5,0.2,1,0.8,1h2.7c0.6,0,1.2-0.4,1.3-1l0.9-3.8c0.1-0.5,0.7-1,1.3-1h0.8c3.3,0,5.9-0.6,7.7-1.9c1.8-1.3,2.8-3,2.8-5.1C72.3,43.6,72.2,42.8,71.8,42.2z M66,47.3c-0.8,0.6-1.9,0.8-3.4,0.8h-0.7c-0.6,0-1-0.4-0.8-1l0.8-3.3c0.1-0.5,0.7-1,1.3-1h0.9c1,0,1.8,0.2,2.3,0.5s0.8,0.8,0.8,1.5C67.2,45.9,66.8,46.7,66,47.3z M94.2,39.8h-2.4l0,0l0,0c-0.6,0-1.1,0.4-1.3,0.9c0,0,0,0,0,0.1c0,0-0.1,0.2-0.2,0.7L87,55.6c-0.1,0.3-0.1,0.5-0.1,0.6l0,0c-0.1,0.5,0.2,0.9,0.7,1l0,0h2.5c0.5,0,1.1-0.4,1.3-0.9c0,0,0,0,0-0.1L95,40.7l0,0C95.1,40.2,94.7,39.8,94.2,39.8z"/> </symbol><symbol viewBox="0 0 35 35" id="svg-phone"><title>phone</title> <path d="M1.730,4.439 C1.730,2.938 3.167,1.717 4.934,1.717 C4.934,1.717 29.753,1.717 29.753,1.717 C30.628,1.717 31.447,2.013 32.057,2.551 C32.637,3.062 32.956,3.732 32.955,4.439 C32.955,4.439 32.956,9.885 32.956,9.885 C32.956,9.885 26.954,9.885 26.954,9.885 C26.954,9.885 26.953,8.196 26.953,8.196 C26.954,7.391 26.604,6.638 25.968,6.076 C25.362,5.543 24.567,5.248 23.727,5.248 C23.727,5.248 10.960,5.248 10.960,5.248 C9.181,5.248 7.733,6.569 7.733,8.194 C7.733,8.194 7.733,9.886 7.733,9.886 C7.733,9.886 1.730,9.886 1.730,9.886 C1.730,9.886 1.730,4.439 1.730,4.439 ZM0.872,11.601 C0.872,11.601 8.591,11.601 8.591,11.601 C8.819,11.601 9.037,11.511 9.198,11.351 C9.359,11.190 9.449,10.971 9.449,10.744 C9.449,10.744 9.449,8.194 9.449,8.194 C9.449,7.527 10.141,6.964 10.960,6.964 C10.960,6.964 23.727,6.964 23.727,6.964 C24.148,6.964 24.541,7.105 24.833,7.363 C25.094,7.594 25.238,7.889 25.237,8.196 C25.237,8.196 25.238,10.743 25.238,10.743 C25.239,11.217 25.623,11.601 26.096,11.601 C26.096,11.601 33.814,11.601 33.814,11.601 C33.816,11.601 33.819,11.601 33.821,11.601 C34.294,11.601 34.678,11.217 34.678,10.743 C34.678,10.706 34.676,10.670 34.672,10.634 C34.672,10.634 34.671,4.439 34.671,4.439 C34.671,3.233 34.146,2.105 33.191,1.264 C32.268,0.450 31.046,0.002 29.753,0.002 C29.753,0.002 4.934,0.002 4.934,0.002 C2.221,0.002 0.014,1.992 0.014,4.439 C0.014,4.439 0.014,10.743 0.014,10.743 C0.014,11.217 0.399,11.601 0.872,11.601 ZM32.956,32.080 C32.956,32.553 32.571,32.938 32.098,32.938 C32.098,32.938 2.688,32.938 2.688,32.938 C2.215,32.938 1.830,32.553 1.830,32.080 C1.830,32.080 1.830,29.700 1.830,29.700 C1.830,28.915 2.191,27.641 2.588,26.996 C2.588,26.996 10.961,14.288 10.961,14.288 C11.300,13.738 12.198,13.236 12.845,13.236 C12.845,13.236 21.835,13.236 21.835,13.236 C22.482,13.236 23.380,13.738 23.736,14.315 C23.736,14.315 32.184,26.974 32.184,26.974 C32.595,27.641 32.956,28.915 32.956,29.700 C32.956,29.700 32.956,32.080 32.956,32.080 ZM25.180,13.389 C24.524,12.324 23.086,11.520 21.835,11.520 C21.835,11.520 12.845,11.520 12.845,11.520 C11.594,11.520 10.156,12.324 9.514,13.367 C9.514,13.367 1.142,26.074 1.142,26.074 C0.566,27.009 0.115,28.602 0.115,29.700 C0.115,29.700 0.115,32.080 0.115,32.080 C0.115,33.498 1.269,34.653 2.688,34.653 C2.688,34.653 32.098,34.653 32.098,34.653 C33.517,34.653 34.672,33.498 34.672,32.080 C34.672,32.080 34.672,29.700 34.672,29.700 C34.672,28.602 34.221,27.009 33.628,26.048 C33.628,26.048 25.180,13.389 25.180,13.389 ZM17.340,28.451 C14.545,28.451 12.271,26.178 12.271,23.383 C12.271,20.589 14.545,18.316 17.340,18.316 C20.135,18.316 22.409,20.589 22.409,23.383 C22.409,26.178 20.135,28.451 17.340,28.451 ZM17.340,16.600 C13.599,16.600 10.555,19.643 10.555,23.383 C10.555,27.124 13.599,30.167 17.340,30.167 C21.081,30.167 24.124,27.124 24.124,23.383 C24.124,19.643 21.081,16.600 17.340,16.600 Z"/> </symbol><symbol viewBox="0 0 1024 1024" id="svg-pinterest"><title>pinterest</title><path d="M512 0C229.376 0 0 229.376 0 512s229.376 512 512 512 512-229.376 512-512S794.624 0 512 0zm67.584 680.96c-39.936 0-77.824-21.504-90.112-46.08 0 0-21.504 84.992-25.6 101.376-16.384 58.368-63.488 116.736-66.56 120.832-2.048 3.072-8.192 2.048-9.216-2.048-1.024-7.168-13.312-80.896 1.024-141.312C396.288 684.032 437.248 512 437.248 512s-12.288-23.552-12.288-58.368c0-55.296 31.744-96.256 71.68-96.256 33.792 0 50.176 25.6 50.176 55.296 0 33.792-21.504 84.992-32.768 131.072-9.216 38.912 19.456 71.68 58.368 71.68 70.656 0 117.76-90.112 117.76-196.608 0-80.896-54.272-142.336-154.624-142.336-112.64 0-182.272 83.968-182.272 177.152 0 32.768 9.216 55.296 24.576 72.704 7.168 8.192 8.192 11.264 5.12 20.48-2.048 7.168-6.144 23.552-7.168 29.696-2.048 9.216-10.24 12.288-18.432 9.216-52.224-21.504-75.776-77.824-75.776-141.312 0-105.472 89.088-231.424 265.216-231.424 141.312 0 234.496 102.4 234.496 211.968-2.048 147.456-82.944 256-201.728 256z"/></symbol><symbol viewBox="0 0 22 28" id="svg-plus"><title>plus</title> <path fill="#444444" d="M22 11.5v3q0 0.625-0.438 1.062t-1.062 0.438h-6.5v6.5q0 0.625-0.438 1.062t-1.062 0.438h-3q-0.625 0-1.062-0.438t-0.438-1.062v-6.5h-6.5q-0.625 0-1.062-0.438t-0.438-1.062v-3q0-0.625 0.438-1.062t1.062-0.438h6.5v-6.5q0-0.625 0.438-1.062t1.062-0.438h3q0.625 0 1.062 0.438t0.438 1.062v6.5h6.5q0.625 0 1.062 0.438t0.438 1.062z"/> </symbol><symbol viewBox="0 0 21 20.969" id="svg-search"><title>search</title>  <path id="search-Search.svg" d="M2563.99,829.116a9.081,9.081,0,0,0,9.03,9.132,8.933,8.933,0,0,0,5.04-1.553l4.14,4.184s0.84,0.511,2.02-.677,0.67-2.043.67-2.043l-4.2-4.237A9.062,9.062,0,1,0,2563.99,829.116Zm3.21,0a5.82,5.82,0,1,1,5.82,5.887A5.938,5.938,0,0,1,2567.2,829.116Z" transform="translate(-2564 -820)"/> </symbol><symbol viewBox="0 0 31 25" id="svg-shipping"><title>shipping</title> <path d="M24.389,17.333 C24.389,17.333 24.736,17.129 24.736,17.129 C24.736,17.129 24.736,18.918 24.736,18.918 C24.736,18.918 24.389,19.121 24.389,19.121 C24.389,19.121 24.389,17.333 24.389,17.333 ZM23.798,19.468 C23.798,19.468 24.145,19.264 24.145,19.264 C24.145,19.264 24.145,17.476 24.145,17.476 C24.145,17.476 23.792,17.682 23.792,17.682 C23.792,17.682 23.798,19.468 23.798,19.468 ZM26.387,17.951 C26.387,17.951 26.740,17.744 26.740,17.744 C26.740,17.744 26.740,15.955 26.740,15.955 C26.740,15.955 26.387,16.162 26.387,16.162 C26.387,16.162 26.387,17.951 26.387,17.951 ZM31.000,7.231 C31.000,7.231 31.000,19.218 31.000,19.218 C31.000,19.218 21.132,25.000 21.132,25.000 C21.132,25.000 8.730,17.732 8.730,17.732 C8.730,17.732 8.730,5.745 8.730,5.745 C8.730,5.745 18.617,0.000 18.617,0.000 C18.617,0.000 31.000,7.231 31.000,7.231 ZM16.773,3.177 C16.773,3.177 26.425,8.911 26.425,8.911 C26.425,8.911 28.391,7.816 28.391,7.816 C28.391,7.816 18.615,2.107 18.615,2.107 C18.615,2.107 16.773,3.177 16.773,3.177 ZM20.167,13.439 C20.167,13.439 10.520,7.819 10.520,7.819 C10.520,7.819 10.520,16.684 10.520,16.684 C10.520,16.684 20.167,22.327 20.167,22.327 C20.167,22.327 20.167,13.439 20.167,13.439 ZM23.020,10.810 C23.020,10.810 13.491,5.084 13.491,5.084 C13.491,5.084 11.473,6.257 11.473,6.257 C11.473,6.257 21.103,11.878 21.103,11.878 C21.103,11.878 23.020,10.810 23.020,10.810 ZM29.193,9.453 C29.193,9.453 27.456,10.421 27.456,10.421 C27.456,10.421 27.456,13.670 27.456,13.670 C27.456,13.670 27.444,13.677 27.444,13.677 C27.444,13.677 27.444,13.690 27.444,13.690 C27.444,13.690 24.044,15.580 24.044,15.580 C24.044,15.580 24.044,15.568 24.044,15.568 C24.044,15.568 24.032,15.575 24.032,15.575 C24.032,15.575 24.032,12.330 24.032,12.330 C24.032,12.330 21.979,13.474 21.979,13.474 C21.979,13.474 21.979,22.396 21.979,22.396 C21.979,22.396 29.193,18.169 29.193,18.169 C29.193,18.169 29.193,9.453 29.193,9.453 C29.193,9.453 29.193,9.453 29.193,9.453 ZM25.220,18.634 C25.220,18.634 25.568,18.431 25.568,18.431 C25.568,18.431 25.568,16.642 25.568,16.642 C25.568,16.642 25.220,16.846 25.220,16.846 C25.220,16.846 25.220,18.634 25.220,18.634 ZM27.248,17.446 C27.248,17.446 27.540,17.275 27.540,17.275 C27.540,17.275 27.595,17.243 27.595,17.243 C27.595,17.243 27.595,15.454 27.595,15.454 C27.595,15.454 27.248,15.658 27.248,15.658 C27.248,15.658 27.248,17.446 27.248,17.446 ZM25.802,18.293 C25.802,18.293 26.149,18.090 26.149,18.090 C26.149,18.090 26.149,16.302 26.149,16.302 C26.149,16.302 25.802,16.505 25.802,16.505 C25.802,16.505 25.802,18.293 25.802,18.293 ZM1.231,7.834 C1.231,7.834 6.884,7.834 6.884,7.834 C6.884,7.834 6.884,9.651 6.884,9.651 C6.884,9.651 1.833,9.651 1.833,9.651 C1.833,9.651 1.231,7.834 1.231,7.834 ZM0.000,10.812 C0.000,10.812 6.884,10.812 6.884,10.812 C6.884,10.812 6.884,12.630 6.884,12.630 C6.884,12.630 0.602,12.630 0.602,12.630 C0.602,12.630 0.000,10.812 0.000,10.812 ZM3.635,15.608 C3.635,15.608 3.033,13.791 3.033,13.791 C3.033,13.791 6.884,13.791 6.884,13.791 C6.884,13.791 6.884,15.608 6.884,15.608 C6.884,15.608 3.635,15.608 3.635,15.608 Z"/> </symbol><symbol viewBox="0 0 2610 1024" id="svg-ssl-simple"><title>ssl-simple</title> <path d="M1666.354 717.977c-1.471-1.766-3.237-2.943-5.002-3.825-2.060-0.883-3.825-1.471-5.885-1.471h-27.66v37.959h28.543c2.060 0 4.12-0.589 5.885-1.471s3.531-2.354 4.708-4.12c1.177-1.766 2.354-3.825 3.237-5.885 0.883-2.354 1.177-4.708 1.177-7.356s-0.294-5.297-1.177-7.651c-1.177-2.354-2.354-4.414-3.825-6.179z"/> <path d="M1338.262 575.559c20.892 0 31.485-28.837 31.485-86.216 0-57.674-10.887-86.51-32.368-86.51-20.892 0-31.485 28.837-31.485 86.51 0 57.379 10.593 86.216 32.368 86.216z"/> <path d="M2037.407 402.832c-20.892 0-31.485 28.837-31.485 86.51 0 57.379 10.887 86.216 32.368 86.216 20.892 0 31.485-28.837 31.485-86.216 0-57.674-10.593-86.51-32.368-86.51z"/> <path d="M2374.326 345.453v0c-13.83 0-25.011 11.77-25.011 26.189 0 14.713 11.182 26.189 25.011 26.189s24.717-11.476 24.717-26.189c0.294-14.418-10.887-26.189-24.717-26.189zM2381.977 389.885c-0.883-1.177-1.766-4.414-2.354-8.828-0.883-4.414-2.943-6.179-7.356-6.179h-3.825v15.007h-5.591v-34.722c2.943-0.294 5.591-0.883 9.71-0.883 5.297 0 8.828 1.177 10.887 2.648s3.237 3.825 3.237 7.062c0 4.414-2.943 7.356-6.768 8.533v0.294c2.943 0.589 5.002 3.237 5.885 8.533s1.766 7.356 2.354 8.533h-6.179z"/> <path d="M2372.561 358.694c-1.766 0-2.943 0-4.12 0.294v11.77h4.12c4.414 0 8.533-1.766 8.533-5.885-0.294-3.237-2.354-6.179-8.533-6.179z"/> <path d="M2098.023 0h-1586.023c-282.777 0-512 229.223-512 512s229.223 512 512 512h1586.023c282.777 0 512-229.223 512-512s-229.223-512-512-512zM1282.648 396.359c13.536-22.657 31.779-33.839 55.025-33.839s41.49 11.182 55.025 33.839c13.536 22.657 20.303 53.554 20.303 92.984s-6.768 70.326-20.303 92.69c-13.536 22.363-31.779 33.839-55.025 33.839s-41.49-11.182-55.025-33.839c-13.536-22.363-20.303-53.554-20.303-92.69 0-39.43 6.768-70.326 20.303-92.984zM512.294 944.552c-238.933 0-432.552-193.618-432.552-432.552s193.618-432.552 432.552-432.552 432.552 193.618 432.552 432.552-193.618 432.552-432.552 432.552zM1126.694 368.993l35.31 137.122h0.883l35.31-137.122h42.372l-72.092 245.407h-11.77l-72.386-245.407h42.372zM1177.306 792.717c-2.354 4.414-5.591 7.945-9.416 10.887-3.825 2.648-8.533 4.708-13.83 5.885s-10.887 1.766-16.478 1.766c-8.828 0-17.655-1.177-26.189-3.825s-16.184-6.474-23.246-11.182l10.005-19.715c0.883 0.883 2.648 2.354 5.297 3.825s5.591 3.237 9.122 4.708c3.531 1.471 7.356 2.943 11.77 4.12s8.828 1.766 13.241 1.766c12.653 0 18.832-4.12 18.832-12.064 0-2.648-0.589-4.708-2.060-6.474s-3.531-3.237-6.179-4.708c-2.648-1.177-5.885-2.648-9.71-3.531-3.825-1.177-7.945-2.354-12.653-3.531-5.591-1.471-10.593-3.237-14.713-5.002s-7.651-3.825-10.299-6.474c-2.648-2.354-4.708-5.297-6.179-8.533s-2.060-7.356-2.060-11.77c0-5.885 1.177-11.182 3.237-15.89s5.297-8.533 9.122-11.476 8.533-5.297 13.536-7.062c5.297-1.471 10.593-2.354 16.772-2.354 8.239 0 15.89 1.177 22.657 3.825 7.062 2.648 12.947 5.591 18.244 9.122l-10.005 18.538c-0.883-0.883-2.060-1.766-4.12-3.237-2.060-1.177-4.414-2.648-7.356-3.825s-6.179-2.354-9.416-3.237c-3.531-0.883-6.768-1.177-10.299-1.177-6.179 0-10.887 1.177-14.124 3.531-2.943 2.354-4.708 5.591-4.708 9.71 0 2.354 0.589 4.414 1.766 5.885s2.943 2.943 5.002 4.12c2.060 1.177 5.002 2.354 8.239 3.237s7.356 2.060 11.77 3.237c5.591 1.471 10.887 3.237 15.595 5.002s8.533 3.825 11.77 6.474c3.237 2.648 5.885 5.885 7.651 9.416 1.766 3.825 2.648 8.239 2.648 13.536 0.589 6.474-0.589 11.77-3.237 16.478zM1297.949 810.078h-81.508v-117.407h80.037v20.009h-57.085v28.248h49.434v18.538h-49.434v30.602h58.556v20.009zM1421.83 795.366c-3.237 3.237-7.062 6.179-11.476 8.533s-8.828 4.12-13.536 5.297-9.416 1.766-14.124 1.766c-8.239 0-15.595-1.766-22.363-5.297s-12.653-8.239-17.655-13.83c-5.002-5.591-8.828-12.064-11.476-19.421s-4.12-14.418-4.12-22.069c0-7.062 1.177-14.124 3.825-21.186s6.179-13.241 10.887-18.832 10.593-10.005 17.655-13.241c7.062-3.531 15.007-5.002 23.834-5.002 10.593 0 19.421 2.354 27.071 7.062s13.241 10.887 17.067 18.538l-17.655 12.064c-1.177-3.237-2.943-6.179-5.002-8.239-2.060-2.354-4.414-4.12-6.768-5.297s-5.002-2.354-7.651-2.943c-2.648-0.589-5.297-0.883-7.651-0.883-5.297 0-10.005 1.177-14.124 3.531s-7.356 5.297-10.299 9.122c-2.648 3.825-4.708 7.945-6.179 12.653s-2.060 9.416-2.060 13.83c0 5.297 0.883 10.299 2.354 15.007s3.825 9.122 6.768 12.653c2.943 3.531 6.474 6.474 10.593 8.828 4.12 2.060 8.533 3.237 13.241 3.237 2.648 0 5.002-0.294 7.651-0.883s5.297-1.766 7.651-3.237 4.708-3.237 6.768-5.591 3.825-5.002 5.002-8.239l18.538 10.593c-0.883 4.414-3.237 8.239-6.768 11.476zM1454.786 247.172h42.372v361.931h-42.372v-361.931zM1563.954 752.405c0 7.945-0.883 15.595-2.943 22.657s-5.002 13.241-9.122 18.538c-4.12 5.297-9.416 9.416-15.89 12.653-6.474 2.943-14.124 4.708-23.246 4.708-9.416 0-17.361-1.766-23.834-5.002s-11.77-7.651-15.89-12.947-7.062-11.476-8.828-18.538-2.648-14.418-2.648-22.069v-59.733h22.657v59.733c0 5.002 0.589 9.71 1.471 14.418s2.648 8.533 4.708 12.064c2.354 3.531 5.297 6.474 8.828 8.533s8.239 3.237 13.241 3.237c5.297 0 10.005-1.177 13.536-3.237s6.768-5.002 8.828-8.533c2.354-3.531 3.825-7.651 4.708-12.064 0.883-4.708 1.471-9.416 1.471-14.124v-59.733h22.657v59.439h0.294zM1559.834 594.685c-10.005-12.064-15.007-29.131-15.007-50.611v-175.080h42.372v171.844c0 22.657 7.651 34.133 22.657 34.133 8.828 0 16.478-4.12 22.952-12.064s10.005-13.536 10.005-16.184v-177.729h42.372v240.11h-42.372v-25.894h-1.177c-11.182 19.715-25.6 29.72-42.667 29.72-16.184 0-29.131-6.179-39.136-18.244zM1674.887 810.078l-24.717-39.43h-22.363v39.43h-22.657v-117.407h51.789c5.297 0 10.299 1.177 15.007 3.531s8.533 5.297 11.77 8.828c3.237 3.825 5.885 7.945 7.651 12.653s2.943 9.416 2.943 14.124c0 7.651-1.766 14.418-5.591 20.598s-8.828 10.593-15.301 13.536l27.66 44.138h-26.189zM1815.834 810.078h-81.508v-117.407h80.037v20.009h-57.085v28.248h49.434v18.538h-49.434v30.602h58.556v20.009zM1816.717 598.216c-10.887 11.77-24.717 17.655-40.901 17.655-15.595 0-31.191-6.474-47.375-19.715v-46.492c15.595 17.361 29.72 25.894 41.784 25.894 5.885 0 10.887-2.060 15.007-5.885s6.179-8.828 6.179-14.713c0-10.887-7.945-28.248-23.834-52.083s-25.894-41.49-30.014-52.671c-4.12-11.476-6.179-21.775-6.179-31.191 0-16.184 5.002-29.72 14.713-40.313s22.069-15.89 37.076-15.89c13.536 0 27.071 5.002 40.313 15.301v40.018c-13.83-11.182-25.894-17.067-36.193-17.067-11.182 0-17.067 5.885-17.067 17.949 0 10.005 8.239 26.483 24.717 49.729 16.478 22.952 27.071 40.607 31.485 52.377s6.768 22.952 6.768 32.956c0 17.655-5.297 32.368-16.478 44.138zM1879.687 278.952c4.708-4.708 10.593-7.062 17.067-7.062 6.768 0 12.359 2.354 17.067 7.062s7.062 10.593 7.062 17.361-2.354 12.359-7.062 17.067c-4.708 4.708-10.593 7.062-17.067 7.062-6.768 0-12.359-2.354-17.067-7.062s-7.062-10.593-7.062-17.067c0-6.768 2.354-12.653 7.062-17.361zM1875.862 368.993h42.372v240.11h-42.372v-240.11zM1990.915 792.717c-2.354 4.414-5.591 7.945-9.416 10.887-3.825 2.648-8.533 4.708-13.83 5.885s-10.887 1.766-16.478 1.766c-8.828 0-17.655-1.177-26.189-3.825s-16.184-6.474-23.246-11.182l10.005-19.715c0.883 0.883 2.648 2.354 5.297 3.825s5.591 3.237 9.122 4.708c3.531 1.471 7.356 2.943 11.77 4.12s8.828 1.766 13.241 1.766c12.653 0 18.832-4.12 18.832-12.064 0-2.648-0.589-4.708-2.060-6.474s-3.531-3.237-6.179-4.708c-2.648-1.177-5.885-2.648-9.71-3.531-3.825-1.177-7.945-2.354-12.653-3.531-5.591-1.471-10.593-3.237-14.713-5.002s-7.651-3.825-10.299-6.474c-2.648-2.354-4.708-5.297-6.179-8.533s-2.060-7.356-2.060-11.77c0-5.885 1.177-11.182 3.237-15.89s5.297-8.533 9.122-11.476 8.533-5.297 13.536-7.062c5.297-1.471 10.593-2.354 16.772-2.354 8.239 0 15.89 1.177 22.657 3.825 7.062 2.648 12.947 5.591 18.244 9.122l-10.005 18.538c-0.883-0.883-2.060-1.766-4.12-3.237-2.060-1.177-4.414-2.648-7.356-3.825s-6.179-2.354-9.416-3.237c-3.531-0.883-6.768-1.177-10.299-1.177-6.179 0-10.887 1.177-14.124 3.531-2.943 2.354-4.708 5.591-4.708 9.71 0 2.354 0.589 4.414 1.766 5.885s2.943 2.943 5.002 4.12 5.002 2.354 8.239 3.237c3.237 0.883 7.356 2.060 11.77 3.237 5.591 1.471 10.887 3.237 15.595 5.002s8.533 3.825 11.77 6.474c3.237 2.648 5.885 5.885 7.651 9.416 1.766 3.825 2.648 8.239 2.648 13.536 0.294 6.474-0.883 11.77-3.237 16.478zM2052.708 810.078h-22.657v-117.113h22.657v117.113zM2037.701 615.871c-23.246 0-41.49-11.182-55.025-33.839-13.536-22.363-20.303-53.554-20.303-92.69 0-39.43 6.768-70.326 20.303-92.984s31.779-33.839 55.025-33.839 41.49 11.182 55.025 33.839c13.536 22.657 20.303 53.554 20.303 92.984s-6.768 70.326-20.303 92.69-31.779 33.839-55.025 33.839zM2183.062 712.68h-37.37v97.398h-22.657v-97.398h-37.37v-20.009h97.692l-0.294 20.009zM2297.232 810.078h-81.214v-117.407h80.037v20.009h-57.085v28.248h49.434v18.538h-49.434v30.602h58.556l-0.294 20.009zM2298.115 609.103h-42.372v-171.844c0-23.246-7.651-34.722-22.657-34.722-8.533 0-16.184 4.414-22.952 13.241s-10.299 13.83-10.299 15.595v177.729h-42.372v-240.11h42.372v25.894h1.177c11.77-20.009 26.777-30.014 44.432-30.014 15.89 0 28.543 6.179 38.253 18.832s14.418 30.014 14.418 52.377v173.021zM2374.326 402.832c-17.067 0-30.602-13.536-30.602-31.191 0-17.361 13.83-30.897 30.602-30.897v0c17.067 0 30.602 13.83 30.602 30.897 0 17.655-13.536 31.191-30.602 31.191z"/> <path d="M296.607 446.97c-4.708 3.825-7.062 8.828-7.062 15.301 0 6.179 2.943 11.182 8.533 15.007s18.832 8.239 39.43 13.241 36.487 12.653 47.963 22.952 17.067 25.011 17.067 44.432-7.356 35.31-21.775 47.375c-14.713 12.064-33.839 18.244-57.674 18.244-34.428 0-65.324-12.653-92.984-38.253l28.837-35.31c23.54 20.598 45.021 30.897 65.030 30.897 8.828 0 15.89-2.060 20.892-5.885s7.651-9.122 7.651-15.595c0-6.474-2.648-11.77-7.945-15.595s-16.184-7.651-32.074-11.476c-25.306-5.885-43.844-13.83-55.32-23.54-11.77-9.71-17.655-24.717-17.655-45.315s7.356-36.487 22.069-47.669c14.713-11.182 33.251-16.772 55.614-16.772 14.418 0 29.131 2.354 43.549 7.356s27.071 12.064 37.959 21.186l-24.423 35.31c-18.832-14.418-38.253-21.48-58.262-21.48-8.533 0-15.007 1.766-19.421 5.591z"/> <path d="M494.639 446.97c-4.708 3.825-7.062 8.828-7.062 15.301 0 6.179 2.943 11.182 8.533 15.007s18.832 8.239 39.43 13.241 36.487 12.653 47.963 22.952c11.476 10.299 17.067 25.011 17.067 44.432s-7.356 35.31-21.775 47.375c-14.713 12.064-33.839 18.244-57.674 18.244-34.428 0-65.324-12.653-92.984-38.253l28.837-35.31c23.54 20.598 45.021 30.897 65.030 30.897 8.828 0 15.89-2.060 20.892-5.885s7.651-9.122 7.651-15.595c0-6.474-2.648-11.77-7.945-15.595s-16.184-7.651-32.074-11.476c-25.306-5.885-43.844-13.83-55.32-23.54-11.77-9.71-17.655-24.717-17.655-45.315s7.356-36.487 22.069-47.669c14.713-11.182 33.251-16.772 55.614-16.772 14.418 0 29.131 2.354 43.549 7.356s27.071 12.064 37.959 21.186l-24.423 35.31c-18.832-14.418-38.253-21.48-58.262-21.48-8.533 0-14.713 1.766-19.421 5.591z"/> <path d="M648.239 620.874v-217.159h48.552v173.903h92.395v43.255h-140.947z"/> </symbol><symbol viewBox="0 0 1000 500" id="svg-ssl"><title>ssl</title> <g> <path fill="#E6E7E8" d="M767.9,76.3h-539c-96.1,0-174,77.9-174,174s77.9,174,174,174h539c96.1,0,174-77.9,174-174
        S864,76.3,767.9,76.3z M227.6,397"/> <g> <path fill="#58595B" d="M451.4,322.2c-0.3-0.3-0.7-0.6-1.4-1.1c-0.7-0.4-1.5-0.9-2.5-1.3c-1-0.4-2.1-0.8-3.2-1.1c-1.2-0.3-2.3-0.4-3.5-0.4c-2.1,0-3.7,0.4-4.8,1.2c-1,0.8-1.6,1.9-1.6,3.3c0,0.8,0.2,1.5,0.6,2c0.4,0.5,1,1,1.7,1.4c0.7,0.4,1.7,0.8,2.8,1.1c1.1,0.3,2.5,0.7,4,1.1c1.9,0.5,3.7,1.1,5.3,1.7c1.6,0.6,2.9,1.3,4,2.2c1.1,0.9,2,2,2.6,3.2c0.6,1.3,0.9,2.8,0.9,4.6c0,2.1-0.4,4-1.2,5.5c-0.8,1.5-1.9,2.7-3.2,3.7c-1.3,0.9-2.9,1.6-4.7,2c-1.8,0.4-3.7,0.6-5.6,0.6c-3,0-6-0.4-8.9-1.3c-2.9-0.9-5.5-2.2-7.9-3.8l3.4-6.7c0.3,0.3,0.9,0.8,1.8,1.3c0.9,0.5,1.9,1.1,3.1,1.6c1.2,0.5,2.5,1,4,1.4c1.5,0.4,3,0.6,4.5,0.6c4.3,0,6.4-1.4,6.4-4.1c0-0.9-0.2-1.6-0.7-2.2c-0.5-0.6-1.2-1.1-2.1-1.6c-0.9-0.4-2-0.9-3.3-1.2c-1.3-0.4-2.7-0.8-4.3-1.2c-1.9-0.5-3.6-1.1-5-1.7c-1.4-0.6-2.6-1.3-3.5-2.2c-0.9-0.8-1.6-1.8-2.1-2.9c-0.5-1.1-0.7-2.5-0.7-4c0-2,0.4-3.8,1.1-5.4c0.7-1.6,1.8-2.9,3.1-3.9c1.3-1,2.9-1.8,4.6-2.4c1.8-0.5,3.6-0.8,5.7-0.8c2.8,0,5.4,0.4,7.7,1.3c2.4,0.9,4.4,1.9,6.2,3.1L451.4,322.2z"/> <path fill="#58595B" d="M496,344.8v6.8h-27.7v-39.9h27.2v6.8h-19.4v9.6h16.8v6.3h-16.8v10.4H496z"/> <path fill="#58595B" d="M506,331.4c0-2.4,0.4-4.8,1.3-7.2c0.9-2.4,2.1-4.5,3.7-6.4c1.6-1.9,3.6-3.4,6-4.5c2.4-1.2,5.1-1.7,8.1-1.7c3.6,0,6.6,0.8,9.2,2.4c2.6,1.6,4.5,3.7,5.8,6.3l-6,4.1c-0.4-1.1-1-2.1-1.7-2.8c-0.7-0.8-1.5-1.4-2.3-1.8c-0.8-0.4-1.7-0.8-2.6-1c-0.9-0.2-1.8-0.3-2.6-0.3c-1.8,0-3.4,0.4-4.8,1.2c-1.4,0.8-2.5,1.8-3.5,3.1c-0.9,1.3-1.6,2.7-2.1,4.3c-0.5,1.6-0.7,3.2-0.7,4.7c0,1.8,0.3,3.5,0.8,5.1c0.5,1.6,1.3,3.1,2.3,4.3c1,1.2,2.2,2.2,3.6,3c1.4,0.7,2.9,1.1,4.5,1.1c0.9,0,1.7-0.1,2.6-0.3c0.9-0.2,1.8-0.6,2.6-1.1c0.8-0.5,1.6-1.1,2.3-1.9c0.7-0.8,1.3-1.7,1.7-2.8l6.3,3.6c-0.6,1.5-1.5,2.8-2.6,4c-1.1,1.1-2.4,2.1-3.9,2.9c-1.5,0.8-3,1.4-4.6,1.8c-1.6,0.4-3.2,0.6-4.8,0.6c-2.8,0-5.3-0.6-7.6-1.8c-2.3-1.2-4.3-2.8-6-4.7c-1.7-1.9-3-4.1-3.9-6.6C506.5,336.4,506,333.9,506,331.4z"/> <path fill="#58595B" d="M569,345c1.8,0,3.4-0.4,4.6-1.1s2.3-1.7,3-2.9c0.8-1.2,1.3-2.6,1.6-4.1c0.3-1.6,0.5-3.2,0.5-4.8v-20.3h7.7V332c0,2.7-0.3,5.3-1,7.7c-0.7,2.4-1.7,4.5-3.1,6.3c-1.4,1.8-3.2,3.2-5.4,4.3c-2.2,1-4.8,1.6-7.9,1.6c-3.2,0-5.9-0.6-8.1-1.7c-2.2-1.1-4-2.6-5.4-4.4c-1.4-1.8-2.4-3.9-3-6.3c-0.6-2.4-0.9-4.9-0.9-7.5v-20.3h7.7V332c0,1.7,0.2,3.3,0.5,4.9c0.3,1.6,0.9,2.9,1.6,4.1c0.8,1.2,1.8,2.2,3,2.9C565.7,344.6,567.2,345,569,345z"/> <path fill="#58595B" d="M600.4,351.6v-39.9H618c1.8,0,3.5,0.4,5.1,1.2c1.6,0.8,2.9,1.8,4,3c1.1,1.3,2,2.7,2.6,4.3c0.6,1.6,1,3.2,1,4.8c0,2.6-0.6,4.9-1.9,7c-1.3,2.1-3,3.6-5.2,4.6l9.4,15h-8.8l-8.4-13.4h-7.6v13.4H600.4z M608.1,331.4h9.7c0.7,0,1.4-0.2,2-0.5c0.6-0.3,1.2-0.8,1.6-1.4c0.4-0.6,0.8-1.3,1.1-2c0.3-0.8,0.4-1.6,0.4-2.5c0-0.9-0.1-1.8-0.4-2.6c-0.3-0.8-0.7-1.5-1.2-2c-0.5-0.6-1.1-1-1.7-1.3c-0.7-0.3-1.3-0.5-2-0.5h-9.4V331.4z"/> <path fill="#58595B" d="M672,344.8v6.8h-27.7v-39.9h27.2v6.8h-19.4v9.6h16.8v6.3h-16.8v10.4H672z"/> <path fill="#58595B" d="M727.8,322.2c-0.3-0.3-0.7-0.6-1.4-1.1c-0.7-0.4-1.5-0.9-2.5-1.3c-1-0.4-2.1-0.8-3.2-1.1c-1.2-0.3-2.3-0.4-3.5-0.4c-2.1,0-3.7,0.4-4.8,1.2c-1,0.8-1.6,1.9-1.6,3.3c0,0.8,0.2,1.5,0.6,2c0.4,0.5,1,1,1.7,1.4c0.7,0.4,1.7,0.8,2.8,1.1c1.1,0.3,2.5,0.7,4,1.1c1.9,0.5,3.7,1.1,5.3,1.7c1.6,0.6,2.9,1.3,4,2.2c1.1,0.9,2,2,2.6,3.2c0.6,1.3,0.9,2.8,0.9,4.6c0,2.1-0.4,4-1.2,5.5c-0.8,1.5-1.9,2.7-3.2,3.7c-1.3,0.9-2.9,1.6-4.7,2c-1.8,0.4-3.7,0.6-5.6,0.6c-3,0-6-0.4-8.9-1.3c-2.9-0.9-5.5-2.2-7.9-3.8l3.4-6.7c0.3,0.3,0.9,0.8,1.8,1.3c0.9,0.5,1.9,1.1,3.1,1.6c1.2,0.5,2.5,1,4,1.4c1.5,0.4,3,0.6,4.5,0.6c4.3,0,6.4-1.4,6.4-4.1c0-0.9-0.2-1.6-0.7-2.2c-0.5-0.6-1.2-1.1-2.1-1.6c-0.9-0.4-2-0.9-3.3-1.2c-1.3-0.4-2.7-0.8-4.3-1.2c-1.9-0.5-3.6-1.1-5-1.7c-1.4-0.6-2.6-1.3-3.5-2.2c-0.9-0.8-1.6-1.8-2.1-2.9c-0.5-1.1-0.7-2.5-0.7-4c0-2,0.4-3.8,1.1-5.4c0.7-1.6,1.8-2.9,3.1-3.9c1.3-1,2.9-1.8,4.6-2.4c1.8-0.5,3.6-0.8,5.7-0.8c2.8,0,5.4,0.4,7.7,1.3c2.4,0.9,4.4,1.9,6.2,3.1L727.8,322.2z"/> <path fill="#58595B" d="M744.7,351.6v-39.8h7.7v39.8H744.7z"/> <path fill="#58595B" d="M796.8,318.5h-12.7v33.1h-7.7v-33.1h-12.7v-6.8h33.2V318.5z"/> <path fill="#58595B" d="M835.6,344.8v6.8H808v-39.9h27.2v6.8h-19.4v9.6h16.8v6.3h-16.8v10.4H835.6z"/> </g> <g> <g> <path fill="#414042" d="M448,285.1l-24.6-83.4h14.3l12,46.6l0.3,0l12-46.6h14.4l-24.5,83.4H448z"/> <path fill="#414042" d="M509.5,285.6c-7.9,0-14.1-3.8-18.7-11.5c-4.6-7.6-6.9-18.2-6.9-31.5c0-13.4,2.3-23.9,6.9-31.6c4.6-7.7,10.8-11.5,18.7-11.5c7.9,0,14.1,3.8,18.7,11.5c4.6,7.7,6.9,18.2,6.9,31.6c0,13.4-2.3,23.9-6.9,31.5C523.5,281.7,517.3,285.6,509.5,285.6z M509.3,213.2c-7.1,0-10.7,9.8-10.7,29.4c0,19.5,3.7,29.3,11,29.3c7.1,0,10.7-9.8,10.7-29.3C520.3,223,516.7,213.2,509.3,213.2z"/> <path fill="#414042" d="M549.3,283.3v-123h14.4v123H549.3z"/> <path fill="#414042" d="M627.5,201.7v81.6h-14.4v-8.8h-0.4c-3.8,6.7-8.7,10.1-14.5,10.1c-5.4,0-9.9-2.1-13.3-6.2c-3.4-4.1-5.1-9.9-5.1-17.2v-59.5h14.4v58.4c0,7.7,2.6,11.6,7.7,11.6c3,0,5.6-1.4,7.8-4.1c2.2-2.7,3.4-4.6,3.4-5.5v-60.4H627.5z"/> <path fill="#414042" d="M642.3,278.9v-15.8c5.3,5.9,10.1,8.8,14.2,8.8c2,0,3.7-0.7,5.1-2c1.4-1.3,2.1-3,2.1-5c0-3.7-2.7-9.6-8.1-17.7c-5.4-8.1-8.8-14.1-10.2-17.9c-1.4-3.9-2.1-7.4-2.1-10.6c0-5.5,1.7-10.1,5-13.7c3.3-3.6,7.5-5.4,12.6-5.4c4.6,0,9.2,1.7,13.7,5.2v13.6c-4.7-3.8-8.8-5.8-12.3-5.8c-3.8,0-5.8,2-5.8,6.1c0,3.4,2.8,9,8.4,16.9c5.6,7.8,9.2,13.8,10.7,17.8c1.5,4,2.3,7.8,2.3,11.2c0,6.1-1.9,11.1-5.6,15.1c-3.7,4-8.4,6-13.9,6C653.1,285.6,647.8,283.3,642.3,278.9z"/> <path fill="#414042" d="M699.6,185.3c-2.3,0-4.2-0.8-5.8-2.4c-1.6-1.6-2.4-3.6-2.4-5.8c0-2.3,0.8-4.3,2.4-5.9c1.6-1.6,3.6-2.4,5.8-2.4c2.3,0,4.2,0.8,5.8,2.4c1.6,1.6,2.4,3.6,2.4,5.9c0,2.3-0.8,4.2-2.4,5.8C703.8,184.5,701.9,185.3,699.6,185.3z"/> <rect x="692.4" y="201.7" fill="#414042" width="14.4" height="81.6"/> <path fill="#414042" d="M747.4,285.6c-7.9,0-14.1-3.8-18.7-11.5c-4.6-7.6-6.9-18.2-6.9-31.5c0-13.4,2.3-23.9,6.9-31.6c4.6-7.7,10.8-11.5,18.7-11.5c7.9,0,14.1,3.8,18.7,11.5c4.6,7.7,6.9,18.2,6.9,31.6c0,13.4-2.3,23.9-6.9,31.5C761.5,281.7,755.3,285.6,747.4,285.6z M747.3,213.2c-7.1,0-10.7,9.8-10.7,29.4c0,19.5,3.7,29.3,11,29.3c7.1,0,10.7-9.8,10.7-29.3C758.3,223,754.7,213.2,747.3,213.2z"/> <path fill="#414042" d="M788.2,283.3v-81.6h14.4v8.8h0.4c4-6.8,9.1-10.2,15.1-10.2c5.4,0,9.7,2.1,13,6.4c3.3,4.3,4.9,10.2,4.9,17.8v58.7h-14.4v-58.4c0-7.9-2.6-11.8-7.7-11.8c-2.9,0-5.5,1.5-7.8,4.5c-2.3,3-3.5,4.7-3.5,5.3v60.4H788.2z"/> </g> <g> <path fill="#414042" d="M861.8,192.1c5.8,0,10.4,4.7,10.4,10.5c0,6-4.6,10.6-10.4,10.6c-5.8,0-10.4-4.6-10.4-10.6C851.3,196.8,856,192.1,861.8,192.1L861.8,192.1z M861.8,193.7c-4.6,0-8.4,4-8.4,8.9c0,5,3.8,8.9,8.5,8.9c4.7,0,8.4-3.9,8.4-8.9C870.3,197.7,866.5,193.7,861.8,193.7L861.8,193.7z M859.8,208.8h-1.9V197c1-0.1,1.9-0.3,3.3-0.3c1.8,0,3,0.4,3.7,0.9c0.7,0.5,1.1,1.3,1.1,2.4c0,1.5-1,2.5-2.3,2.9v0.1c1,0.2,1.7,1.1,2,2.9c0.3,1.8,0.6,2.5,0.8,2.9h-2c-0.3-0.4-0.6-1.5-0.8-3c-0.3-1.5-1-2.1-2.5-2.1h-1.3V208.8z M859.8,202.3h1.4c1.5,0,2.9-0.6,2.9-2c0-1-0.8-2.1-2.9-2.1c-0.6,0-1,0-1.4,0.1V202.3z"/> </g> </g> <circle fill="#414042" cx="229" cy="250.3" r="147"/> <g> <path fill="#E6E7E8" d="M155.7,228.2c-1.6,1.3-2.4,3-2.4,5.2c0,2.1,1,3.9,2.9,5.1c1.9,1.3,6.4,2.8,13.4,4.5c7,1.7,12.4,4.3,16.3,7.8c3.9,3.4,5.8,8.5,5.8,15.1c0,6.6-2.5,12-7.4,16.1c-5,4.1-11.5,6.2-19.6,6.2c-11.7,0-22.2-4.3-31.6-13l9.8-12c8,7,15.3,10.4,22.1,10.4c3,0,5.4-0.7,7.1-2c1.7-1.3,2.6-3.1,2.6-5.3s-0.9-4-2.7-5.3c-1.8-1.3-5.5-2.6-10.9-4c-8.6-2-14.9-4.7-18.8-8c-4-3.3-6-8.4-6-15.4c0-7,2.5-12.4,7.5-16.2c5-3.8,11.3-5.7,18.8-5.7c4.9,0,9.8,0.8,14.8,2.5c4.9,1.7,9.2,4.1,12.9,7.2l-8.3,12c-6.4-4.9-13-7.3-19.8-7.3C159.4,226.3,157.2,226.9,155.7,228.2z"/> <path fill="#E6E7E8" d="M223,228.2c-1.6,1.3-2.4,3-2.4,5.2c0,2.1,1,3.9,2.9,5.1c1.9,1.3,6.4,2.8,13.4,4.5c7,1.7,12.4,4.3,16.3,7.8c3.9,3.4,5.8,8.5,5.8,15.1c0,6.6-2.5,12-7.4,16.1c-5,4.1-11.5,6.2-19.6,6.2c-11.7,0-22.2-4.3-31.6-13l9.8-12c8,7,15.3,10.4,22.1,10.4c3,0,5.4-0.7,7.1-2c1.7-1.3,2.6-3.1,2.6-5.3s-0.9-4-2.7-5.3c-1.8-1.3-5.5-2.6-10.9-4c-8.6-2-14.9-4.7-18.8-8c-4-3.3-6-8.4-6-15.4c0-7,2.5-12.4,7.5-16.2c5-3.8,11.3-5.7,18.8-5.7c4.9,0,9.9,0.8,14.8,2.5c4.9,1.7,9.2,4.1,12.9,7.2l-8.3,12c-6.4-4.9-13-7.3-19.8-7.3C226.7,226.3,224.6,226.9,223,228.2z"/> <path fill="#E6E7E8" d="M275.2,287.3v-73.8h16.5v59.1h31.5v14.7H275.2z"/> </g> </g> </symbol><symbol viewBox="0 0 37 35" id="svg-star"><title>star</title> <path d="M34.289,14.159 C34.063,14.310 26.735,19.635 25.269,20.701 C25.269,20.701 24.739,21.086 24.739,21.086 C24.739,21.086 24.942,21.705 24.942,21.705 C26.159,25.420 28.179,31.585 28.379,32.164 C28.379,32.164 28.378,32.164 28.378,32.164 C28.404,32.239 28.417,32.307 28.417,32.362 C28.417,32.630 28.193,32.857 27.927,32.857 C27.827,32.857 27.732,32.826 27.655,32.774 C27.495,32.661 21.717,28.476 18.685,26.279 C18.685,26.279 18.153,25.894 18.153,25.894 C18.153,25.894 8.663,32.765 8.663,32.765 C8.574,32.826 8.478,32.857 8.378,32.857 C8.109,32.857 7.889,32.635 7.889,32.362 C7.889,32.307 7.903,32.237 7.928,32.161 C7.928,32.161 7.928,32.161 7.928,32.161 C8.141,31.542 10.151,25.407 11.363,21.705 C11.363,21.705 11.566,21.086 11.566,21.086 C11.566,21.086 11.037,20.701 11.037,20.701 C9.571,19.636 2.243,14.311 2.031,14.169 C1.899,14.077 1.820,13.925 1.820,13.762 C1.820,13.476 2.042,13.225 2.296,13.225 C2.296,13.225 14.084,13.225 14.084,13.225 C14.084,13.225 17.686,2.155 17.686,2.155 C17.737,1.975 17.901,1.795 18.153,1.795 C18.405,1.795 18.568,1.975 18.619,2.154 C18.619,2.154 22.237,13.225 22.237,13.225 C22.237,13.225 34.025,13.225 34.025,13.225 C34.275,13.225 34.486,13.468 34.486,13.755 C34.486,13.922 34.407,14.077 34.289,14.159 ZM34.025,11.427 C34.025,11.427 23.549,11.427 23.549,11.427 C23.549,11.427 20.353,1.648 20.353,1.648 C20.069,0.676 19.167,-0.002 18.153,-0.002 C17.132,-0.002 16.225,0.684 15.957,1.635 C15.957,1.635 12.770,11.427 12.770,11.427 C12.770,11.427 2.296,11.427 2.296,11.427 C1.037,11.427 0.013,12.475 0.013,13.762 C0.013,14.510 0.380,15.213 1.003,15.647 C1.226,15.800 5.986,19.257 9.442,21.768 C8.128,25.782 6.316,31.306 6.231,31.546 C6.231,31.546 6.214,31.593 6.214,31.593 C6.127,31.854 6.082,32.113 6.082,32.362 C6.082,33.626 7.112,34.655 8.378,34.655 C8.844,34.655 9.297,34.514 9.707,34.232 C9.707,34.232 18.153,28.117 18.153,28.117 C20.073,29.508 26.431,34.114 26.617,34.245 C27.007,34.513 27.460,34.655 27.927,34.655 C29.194,34.655 30.224,33.626 30.224,32.362 C30.224,32.111 30.179,31.851 30.083,31.568 C29.992,31.314 28.179,25.785 26.863,21.768 C30.318,19.258 35.077,15.802 35.312,15.641 C35.926,15.213 36.293,14.507 36.293,13.755 C36.293,12.472 35.275,11.427 34.025,11.427 Z" id="star-path-1"/> </symbol><symbol viewBox="0 0 1024 1024" id="svg-tumblr"><title>tumblr</title><path d="M512 0C229.376 0 0 229.376 0 512s229.376 512 512 512 512-229.376 512-512S794.624 0 512 0zm198.656 790.528c-26.624 12.288-50.176 20.48-70.656 25.6-21.504 5.12-44.032 7.168-68.608 7.168-27.648 0-53.248-3.072-74.752-10.24s-39.936-17.408-55.296-30.72c-15.36-13.312-25.6-26.624-31.744-41.984-6.144-14.336-9.216-35.84-9.216-64.512V460.8H332.8v-87.04c23.552-8.192 44.032-19.456 61.44-33.792s30.72-31.744 40.96-52.224c10.24-20.48 17.408-46.08 21.504-77.824h87.04v155.648h145.408v96.256H544.768V619.52c0 35.84 2.048 58.368 6.144 68.608s11.264 18.432 21.504 24.576c13.312 8.192 28.672 12.288 46.08 12.288 30.72 0 61.44-10.24 92.16-30.72v96.256z"/></symbol><symbol viewBox="0 0 1024 1024" id="svg-twitter"><title>twitter</title><path d="M512 0C229.376 0 0 229.376 0 512s229.376 512 512 512 512-229.376 512-512S794.624 0 512 0zm257.024 423.936c7.168 166.912-116.736 353.28-337.92 353.28-66.56 0-129.024-19.456-182.272-53.248 63.488 7.168 125.952-10.24 176.128-49.152-52.224-1.024-96.256-34.816-110.592-82.944 18.432 3.072 36.864 2.048 53.248-2.048-57.344-11.264-96.256-62.464-95.232-117.76 16.384 9.216 34.816 14.336 54.272 15.36-53.248-35.84-67.584-105.472-36.864-158.72 58.368 71.68 146.432 118.784 244.736 123.904C517.12 377.856 573.44 307.2 650.24 307.2c33.792 0 64.512 14.336 87.04 37.888 26.624-5.12 52.224-15.36 75.776-28.672-9.216 27.648-27.648 51.2-52.224 65.536 23.552-3.072 47.104-9.216 68.608-18.432-16.384 22.528-36.864 44.032-60.416 60.416z"/></symbol><symbol viewBox="3.9 35.7 90 28.6" id="svg-visa"><title>visa</title> <path d="M35.6,63.8h7.3l4.6-27.5h-7.3L35.6,63.8z M62.1,47.3C59.6,46,58,45.2,58,43.9c0-1.1,1.3-2.4,4.2-2.4
	c2.4,0,4.1,0.5,5.5,1.1l0.7,0.3l1-6c-1.4-0.6-3.7-1.2-6.5-1.2c-7.2,0-12.3,3.7-12.3,9.1c0,4,3.6,6.2,6.4,7.5
	c2.8,1.3,3.8,2.2,3.8,3.4c0,1.8-2.3,2.7-4.4,2.7c-2.9,0-4.5-0.4-6.9-1.4l-0.9-0.4l-1,6.2c1.7,0.8,4.8,1.4,8.1,1.5
	c7.7,0,12.6-3.7,12.7-9.4C68.2,51.7,66.3,49.3,62.1,47.3z M88,36.3h-5.6c-1.7,0-3.1,0.5-3.8,2.3L67.7,63.8h7.7
	c0,0,1.2-3.4,1.5-4.1c0.8,0,8.3,0,9.3,0c0.2,1,0.9,4.1,0.9,4.1h6.8L88,36.3z M79,54c0.6-1.6,2.9-7.7,2.9-7.7c0,0.1,0.6-1.6,1-2.6l0.5,2.4c0,0,1.4,6.6,1.7,7.9C85.1,54,79,54,79,54z M29.5,36.3l-7.1,18.8l-0.8-3.8L19,38.6c-0.4-1.7-1.7-2.3-3.3-2.3H4l-0.1,0.6c2.9,0.7,5.4,1.7,7.7,3L18,63.8h7.7l11.5-27.5H29.5z"/> </symbol><symbol viewBox="0 0 1024 1024" id="svg-youtube"><title>youtube</title><path d="M590.848 588.8c-11.264 0-21.504 7.168-28.672 16.384v-76.8h-32.768v237.568h32.768V752.64c9.216 11.264 19.456 15.36 30.72 15.36 21.504 0 29.696-16.384 29.696-38.912v-97.28c0-22.528-8.192-43.008-31.744-43.008zM588.8 724.992c0 5.12-1.024 9.216-3.072 12.288-3.072 5.12-11.264 4.096-16.384 2.048-2.048-1.024-5.12-3.072-8.192-6.144V623.616c2.048-2.048 4.096-4.096 7.168-5.12 6.144-3.072 13.312-2.048 17.408 3.072 2.048 3.072 3.072 7.168 3.072 13.312v90.112zM479.232 380.928v-84.992c0-10.24 5.12-17.408 14.336-17.408 10.24 0 15.36 7.168 15.36 17.408v84.992c0 10.24-5.12 17.408-14.336 17.408-10.24 0-15.36-7.168-15.36-17.408zm-14.336 209.92h32.768v175.104h-32.768v-19.456c-6.144 7.168-12.288 12.288-18.432 16.384-17.408 10.24-41.984 10.24-41.984-25.6V590.848h32.768v134.144c0 7.168 2.048 12.288 8.192 12.288s15.36-8.192 19.456-13.312v-133.12zM404.48 563.2h-37.888v202.752h-36.864V563.2H291.84v-34.816h112.64V563.2zm291.84 23.552c-29.696 0-49.152 21.504-49.152 51.2V716.8c0 31.744 16.384 54.272 47.104 54.272 33.792 0 49.152-20.48 49.152-54.272v-13.312h-33.792v12.288c0 15.36-1.024 24.576-14.336 24.576s-14.336-11.264-14.336-24.576v-32.768h62.464v-44.032c-1.024-32.768-16.384-52.224-47.104-52.224zm12.288 68.608h-28.672v-17.408c0-12.288 2.048-20.48 14.336-20.48 11.264 0 14.336 8.192 14.336 20.48v17.408zM512 0C229.376 0 0 229.376 0 512s229.376 512 512 512 512-229.376 512-512S794.624 0 512 0zm60.416 244.736h33.792v140.288c0 7.168 2.048 12.288 9.216 12.288s16.384-8.192 20.48-13.312V244.736h33.792v183.296h-33.792v-20.48c-14.336 17.408-28.672 22.528-39.936 22.528-18.432 0-23.552-14.336-23.552-32.768V244.736zm-77.824-1.024c27.648 0 49.152 20.48 49.152 49.152v90.112c0 30.72-21.504 49.152-49.152 49.152-32.768 0-50.176-16.384-50.176-49.152v-90.112c0-29.696 19.456-49.152 50.176-49.152zM355.328 179.2l26.624 99.328 24.576-99.328h38.912l-44.032 148.48v101.376h-38.912V327.68L317.44 179.2h37.888zM793.6 746.496c0 43.008-34.816 77.824-77.824 77.824H313.344c-43.008 0-77.824-34.816-77.824-77.824V548.864c0-43.008 34.816-77.824 77.824-77.824h402.432c43.008 0 77.824 34.816 77.824 77.824v197.632z"/></symbol></svg>